<svg width="16" height="16" viewBox="0 0 16 16" fill="none" xmlns="http://www.w3.org/2000/svg">
<g clip-path="url(#clip0_134_750)">
<path fill-rule="evenodd" clip-rule="evenodd" d="M8.00033 0C4.61166 0 2.35699 3.29933 5.51166 9.11867C6.57566 11.082 4.36166 11.546 2.11833 12.064C0.0696592 12.5367 -0.0063409 13.554 0.00032577 15.3333L0.00299244 16H15.9963L15.999 15.354C16.007 13.562 15.937 12.5387 13.881 12.064C11.589 11.5347 9.45499 11.0707 10.4877 9.11867C13.6337 3.17733 11.3217 0 8.00033 0ZM8.00033 0.666667C9.26033 0.666667 10.2603 1.176 10.817 2.1C11.7197 3.60067 11.3943 5.98267 9.89899 8.80667C9.51433 9.53467 9.45033 10.192 9.71033 10.7613C10.335 12.1273 12.8823 12.516 13.7317 12.7133C15.267 13.0693 15.3397 13.5887 15.3323 15.3333H0.666992C0.660326 13.59 0.726993 13.0693 2.26766 12.7133C3.03899 12.536 5.69299 12.1007 6.30033 10.7533C6.55833 10.1813 6.48966 9.52467 6.09766 8.80067C4.61033 6.05733 4.26833 3.62467 5.16099 2.126C5.72099 1.18467 6.72966 0.666667 8.00033 0.666667Z" fill="#323232"/>
</g>
<defs>
<clipPath id="clip0_134_750">
<rect width="16" height="16" fill="white"/>
</clipPath>
</defs>
</svg>
