<svg width="16" height="16" viewBox="0 0 16 16" fill="none" xmlns="http://www.w3.org/2000/svg">
<path fill-rule="evenodd" clip-rule="evenodd" d="M8.17265 0.000666667L8.34332 0.00333333L8.51332 0.00666667L8.68199 0.012L8.84932 0.0186667L9.01532 0.0266667L9.17999 0.0366667L9.34399 0.0473333L9.50532 0.06L9.66599 0.0733333L9.82532 0.0886667L9.98265 0.104667L10.138 0.122667L10.292 0.141333L10.4447 0.162L10.5947 0.183333L10.7433 0.206L10.89 0.23L11.0347 0.255333L11.1773 0.282L11.318 0.309333L11.4567 0.338L11.5933 0.368L11.7273 0.398667L11.8593 0.430667L11.9887 0.464L12.116 0.498L12.2407 0.533333L12.3627 0.569333L12.4827 0.606667L12.5993 0.644667L12.714 0.684L12.826 0.724L12.9347 0.764667L13.0413 0.806667L13.1447 0.849333L13.2447 0.893333L13.294 0.915333L13.3427 0.937333L13.39 0.96L13.4367 0.982667L13.4827 1.006L13.528 1.02933L13.5727 1.05267L13.6167 1.076L13.6593 1.1L13.702 1.124L13.7433 1.148L13.7833 1.172L13.8233 1.19667L13.862 1.22133L13.9007 1.246L13.9373 1.27133L13.974 1.29667L14.0093 1.322L14.044 1.34733L14.078 1.37333L14.1113 1.39933L14.1433 1.42533L14.1747 1.45133L14.2047 1.478L14.234 1.50467L14.2627 1.53133L14.29 1.558L14.3167 1.58533L14.3427 1.61267L14.3673 1.64L14.3913 1.66733L14.414 1.69467L14.436 1.72267L14.4573 1.75067L14.4773 1.77867L14.4967 1.80667L14.5147 1.83467L14.532 1.86333L14.548 1.892L14.5633 1.92067L14.5773 1.94933L14.5907 1.978L14.6027 2.00733L14.614 2.036L14.624 2.06533L14.6327 2.09467L14.6407 2.124L14.648 2.154L14.654 2.18333L14.6587 2.21333L14.6627 2.24333L14.6653 2.27333L14.6667 2.30333L14.6673 2.33333V13.6667L14.6667 13.6967L14.6653 13.7267L14.6627 13.7567L14.6587 13.7867L14.654 13.8167L14.648 13.846L14.6407 13.876L14.6327 13.9053L14.624 13.9347L14.614 13.964L14.6027 13.9927L14.5907 14.022L14.5773 14.0507L14.5633 14.0793L14.548 14.108L14.532 14.1367L14.5147 14.1653L14.4967 14.1933L14.4773 14.2213L14.4573 14.2493L14.436 14.2773L14.414 14.3053L14.3913 14.3327L14.3673 14.36L14.3427 14.3873L14.3167 14.4147L14.29 14.442L14.2627 14.4687L14.234 14.4953L14.2047 14.522L14.1747 14.5487L14.1433 14.5747L14.1113 14.6007L14.078 14.6267L14.044 14.6527L14.0093 14.678L13.974 14.7033L13.9373 14.7287L13.9007 14.754L13.862 14.7787L13.8233 14.8033L13.7833 14.828L13.7433 14.852L13.702 14.876L13.6593 14.9L13.6167 14.924L13.5727 14.9473L13.528 14.9707L13.4827 14.994L13.4367 15.0173L13.39 15.04L13.3427 15.0627L13.294 15.0847L13.2447 15.1067L13.1447 15.1507L13.0413 15.1933L12.9347 15.2353L12.826 15.276L12.714 15.316L12.5993 15.3553L12.4827 15.3933L12.3627 15.4307L12.2407 15.4667L12.116 15.502L11.9887 15.536L11.8593 15.5693L11.7273 15.6013L11.5933 15.632L11.4567 15.662L11.318 15.6907L11.1773 15.718L11.0347 15.7447L10.89 15.77L10.7433 15.794L10.5947 15.8167L10.4447 15.838L10.292 15.8587L10.138 15.8773L9.98265 15.8953L9.82532 15.9113L9.66599 15.9267L9.50532 15.94L9.34399 15.9527L9.17999 15.9633L9.01532 15.9733L8.84932 15.9813L8.68199 15.988L8.51332 15.9933L8.34332 15.9967L8.17265 15.9993L8.00065 16L7.82865 15.9993L7.65799 15.9967L7.48799 15.9933L7.31932 15.988L7.15199 15.9813L6.98598 15.9733L6.82132 15.9633L6.65799 15.9527L6.49599 15.94L6.33532 15.9267L6.17665 15.9113L6.01932 15.8953L5.86332 15.8773L5.70932 15.8587L5.55732 15.838L5.40665 15.8167L5.25798 15.794L5.11132 15.77L4.96665 15.7447L4.82398 15.718L4.68332 15.6907L4.54465 15.662L4.40865 15.632L4.27465 15.6013L4.14265 15.5693L4.01265 15.536L3.88598 15.502L3.76132 15.4667L3.63865 15.4307L3.51932 15.3933L3.40198 15.3553L3.28732 15.316L3.17598 15.276L3.06665 15.2353L2.96065 15.1933L2.85732 15.1507L2.75665 15.1067L2.70732 15.0847L2.65932 15.0627L2.61132 15.04L2.56465 15.0173L2.51865 14.994L2.47332 14.9707L2.42865 14.9473L2.38465 14.924L2.34198 14.9L2.29998 14.876L2.25865 14.852L2.21798 14.828L2.17798 14.8033L2.13932 14.7787L2.10132 14.754L2.06398 14.7287L2.02732 14.7033L1.99198 14.678L1.95732 14.6527L1.92332 14.6267L1.89065 14.6007L1.85798 14.5747L1.82732 14.5487L1.79665 14.522L1.76732 14.4953L1.73865 14.4687L1.71132 14.442L1.68465 14.4147L1.65865 14.3873L1.63398 14.36L1.60998 14.3327L1.58732 14.3053L1.56532 14.2773L1.54398 14.2493L1.52398 14.2213L1.50465 14.1933L1.48665 14.1653L1.46932 14.1367L1.45332 14.108L1.43798 14.0793L1.42398 14.0507L1.41065 14.022L1.39865 13.9927L1.38732 13.964L1.37732 13.9347L1.36865 13.9053L1.36065 13.876L1.35332 13.846L1.34732 13.8167L1.34265 13.7867L1.33865 13.7567L1.33598 13.7267L1.33465 13.6967L1.33398 13.6667V2.33333L1.33465 2.30333L1.33598 2.27333L1.33865 2.24333L1.34265 2.21333L1.34732 2.18333L1.35332 2.154L1.36065 2.124L1.36865 2.09467L1.37732 2.06533L1.38732 2.036L1.39865 2.00733L1.41065 1.978L1.42398 1.94933L1.43798 1.92067L1.45332 1.892L1.46932 1.86333L1.48665 1.83467L1.50465 1.80667L1.52398 1.77867L1.54398 1.75067L1.56532 1.72267L1.58732 1.69467L1.60998 1.66733L1.63398 1.64L1.65865 1.61267L1.68465 1.58533L1.71132 1.558L1.73865 1.53133L1.76732 1.50467L1.79665 1.478L1.82732 1.45133L1.85798 1.42533L1.89065 1.39933L1.92332 1.37333L1.95732 1.34733L1.99198 1.322L2.02732 1.29667L2.06398 1.27133L2.10132 1.246L2.13932 1.22133L2.17798 1.19667L2.21798 1.172L2.25865 1.148L2.29998 1.124L2.34198 1.1L2.38465 1.076L2.42865 1.05267L2.47332 1.02933L2.51865 1.006L2.56465 0.982667L2.61132 0.96L2.65932 0.937333L2.70732 0.915333L2.75665 0.893333L2.85732 0.849333L2.96065 0.806667L3.06665 0.764667L3.17598 0.724L3.28732 0.684L3.40198 0.644667L3.51932 0.606667L3.63865 0.569333L3.76132 0.533333L3.88598 0.498L4.01265 0.464L4.14265 0.430667L4.27465 0.398667L4.40865 0.368L4.54465 0.338L4.68332 0.309333L4.82398 0.282L4.96665 0.255333L5.11132 0.23L5.25798 0.206L5.40665 0.183333L5.55732 0.162L5.70932 0.141333L5.86332 0.122667L6.01932 0.104667L6.17665 0.0886667L6.33532 0.0733333L6.49599 0.06L6.65799 0.0473333L6.82132 0.0366667L6.98598 0.0266667L7.15199 0.0186667L7.31932 0.012L7.48799 0.00666667L7.65799 0.00333333L7.82865 0.000666667L8.00065 0L8.17265 0.000666667ZM2.00065 13.6667V13.6733L2.00132 13.6873L2.00332 13.7013L2.00598 13.716L2.00932 13.73L2.01332 13.7447L2.01798 13.7593L2.02398 13.7747L2.03065 13.7893L2.03798 13.8047L2.04598 13.82L2.05465 13.8353L2.06465 13.8507L2.07532 13.8667L2.08665 13.882L2.09865 13.898L2.11132 13.914L2.12532 13.93L2.13998 13.9467L2.15532 13.9627L2.17132 13.9793L2.20598 14.012L2.24332 14.0453L2.28398 14.0793L2.32798 14.1133L2.37465 14.1473L2.42465 14.1813L2.47732 14.216L2.53332 14.2507L2.59198 14.2853L2.65332 14.32L2.71798 14.3547L2.78598 14.3887L2.85598 14.4233L2.92932 14.458L3.00532 14.492L3.08465 14.526L3.16665 14.56L3.25132 14.5933L3.33865 14.6267L3.42865 14.66L3.52132 14.692L3.61732 14.7247L3.71532 14.756L3.81665 14.7873L3.91998 14.8187L4.02665 14.8487L4.13532 14.8787L4.24665 14.9073L4.36065 14.936L4.47798 14.9633L4.59665 14.9907L4.71865 15.0167L4.84332 15.0427L4.96998 15.0673L5.09932 15.0907L5.23065 15.114L5.36532 15.136L5.50132 15.1567L5.64065 15.1767L5.78198 15.196L5.92598 15.214L6.07199 15.2307L6.21999 15.2467L6.37065 15.2607L6.52398 15.274L6.67932 15.286L6.83665 15.2967L6.99665 15.3067L7.15865 15.3147L7.32265 15.3213L7.48865 15.3267L7.65732 15.33L7.82799 15.3327L8.00065 15.3333L8.17399 15.3327L8.34532 15.33L8.51465 15.3267L8.68132 15.3213L8.84598 15.314L9.00865 15.306L9.16932 15.2967L9.32732 15.286L9.48265 15.274L9.63665 15.26L9.78732 15.246L9.93665 15.23L10.0833 15.2127L10.2273 15.1947L10.3687 15.176L10.5087 15.1553L10.6453 15.1347L10.78 15.112L10.912 15.0893L11.0413 15.0653L11.1687 15.0407L11.2933 15.0147L11.4153 14.988L11.5347 14.9613L11.6513 14.9333L11.766 14.9047L11.878 14.8753L11.9867 14.8453L12.0933 14.8147L12.1967 14.784L12.298 14.7527L12.3967 14.7207L12.492 14.688L12.5847 14.6553L12.6753 14.622L12.7627 14.5887L12.8467 14.5553L12.9287 14.5213L13.0073 14.4867L13.0833 14.4527L13.1567 14.418L13.2273 14.3833L13.2947 14.3487L13.3587 14.314L13.42 14.2793L13.4787 14.244L13.534 14.21L13.5867 14.1753L13.636 14.1407L13.6827 14.1067L13.726 14.0727L13.766 14.0387L13.8033 14.0053L13.8373 13.972L13.8527 13.956L13.868 13.9393L13.882 13.9233L13.8953 13.9073L13.908 13.8913L13.92 13.8753L13.9313 13.8593L13.9413 13.844L13.9507 13.828L13.9593 13.8127L13.9673 13.7973L13.974 13.782L13.9807 13.7673L13.986 13.7527L13.99 13.738L13.994 13.7233L13.9967 13.7087L13.9993 13.6947L14 13.6807L14.0007 13.6667V10.9153L13.9493 10.952L13.896 10.9873L13.8407 11.0233L13.784 11.0587L13.726 11.0933L13.666 11.128L13.604 11.162L13.5407 11.1953L13.476 11.2287L13.4093 11.2613L13.3413 11.294L13.2713 11.326L13.2007 11.3573L13.128 11.3887L13.054 11.4193L12.978 11.4493L12.9013 11.4793L12.8227 11.5087L12.7427 11.5373L12.6613 11.5653L12.5787 11.5933L12.4947 11.6207L12.4093 11.6473L12.3227 11.674L12.2347 11.6993L12.1453 11.7247L12.0553 11.7493L11.9633 11.774L11.8707 11.7973L11.776 11.8207L11.6807 11.8433L11.5847 11.8653L11.4867 11.8867L11.388 11.9073L11.288 11.9273L11.1873 11.9473L11.0853 11.9667L10.9827 11.9847L10.8787 12.0027L10.7733 12.02L10.6673 12.0367L10.56 12.0527L10.452 12.068L10.3433 12.0827L10.2333 12.0967L10.1227 12.11L10.0113 12.1227L9.89865 12.1347L9.78599 12.146L9.67199 12.1567L9.55665 12.1667L9.44132 12.176L9.32465 12.1847L9.20799 12.1927L9.08999 12.2L8.97132 12.2067L8.85199 12.212L8.73265 12.2173L8.61199 12.2213L8.49065 12.2247L8.36932 12.2273L8.24665 12.2293L8.12399 12.2307H7.87732L7.75465 12.2293L7.63198 12.2273L7.51065 12.2247L7.38932 12.2213L7.26865 12.2173L7.14932 12.212L7.02998 12.2067L6.91132 12.2L6.79398 12.1927L6.67665 12.1847L6.55998 12.176L6.44465 12.1667L6.32999 12.1567L6.21598 12.146L6.10265 12.1347L5.98998 12.1227L5.87865 12.11L5.76798 12.0967L5.65798 12.0827L5.54932 12.068L5.44132 12.0527L5.33398 12.0367L5.22798 12.02L5.12332 12.0027L5.01932 11.9847L4.91598 11.9667L4.81398 11.9473L4.71332 11.9273L4.61332 11.9073L4.51465 11.8867L4.41732 11.8653L4.32065 11.8433L4.22532 11.8207L4.13132 11.7973L4.03798 11.774L3.94665 11.7493L3.85598 11.7247L3.76665 11.6993L3.67865 11.674L3.59198 11.6473L3.50665 11.6207L3.42265 11.5933L3.33998 11.5653L3.25865 11.5373L3.17865 11.508L3.10065 11.4793L3.02332 11.4493L2.94798 11.4193L2.87332 11.3887L2.80065 11.3573L2.72998 11.326L2.65998 11.294L2.59198 11.2613L2.52532 11.2287L2.46065 11.1953L2.39732 11.162L2.33532 11.1273L2.27532 11.0933L2.21732 11.0587L2.16065 11.0233L2.10532 10.9873L2.05198 10.9513L2.00065 10.9153V13.6667ZM2.00065 9.89733V9.90467L2.00132 9.91867L2.00332 9.93267L2.00598 9.94667L2.00932 9.96133L2.01332 9.976L2.01798 9.99067L2.02398 10.0053L2.03065 10.02L2.03798 10.0353L2.04598 10.0507L2.05465 10.066L2.06465 10.082L2.07532 10.0973L2.08665 10.1133L2.09865 10.1293L2.11132 10.1453L2.12532 10.1613L2.13998 10.1773L2.15532 10.194L2.17132 10.21L2.20598 10.2433L2.24332 10.2767L2.28398 10.31L2.32798 10.344L2.37465 10.378L2.42465 10.4127L2.47732 10.4467L2.53332 10.4813L2.59198 10.516L2.65332 10.5507L2.71798 10.5853L2.78598 10.62L2.85598 10.6547L2.92932 10.6887L3.00532 10.7227L3.08465 10.7573L3.16665 10.7907L3.25132 10.8247L3.33865 10.858L3.42865 10.8907L3.52132 10.9233L3.61732 10.9553L3.71532 10.9873L3.81665 11.0187L3.91998 11.0493L4.02665 11.0793L4.13532 11.1093L4.24665 11.1387L4.36065 11.1667L4.47798 11.1947L4.59665 11.2213L4.71865 11.248L4.84332 11.2733L4.96998 11.298L5.09932 11.322L5.23065 11.3447L5.36532 11.3667L5.50132 11.388L5.64065 11.408L5.78198 11.4267L5.92598 11.4447L6.07199 11.4613L6.21999 11.4773L6.37065 11.492L6.52398 11.5053L6.67932 11.5173L6.83665 11.528L6.99665 11.5373L7.15865 11.5453L7.32265 11.552L7.48865 11.5573L7.65732 11.5613L7.82799 11.5633L8.00065 11.564L8.17399 11.5633L8.34532 11.5613L8.51465 11.5573L8.68132 11.552L8.84598 11.5453L9.00865 11.5373L9.16932 11.5273L9.32732 11.5167L9.48265 11.5047L9.63665 11.4913L9.78732 11.4767L9.93665 11.4607L10.0833 11.444L10.2273 11.426L10.3687 11.4067L10.5087 11.3867L10.6453 11.3653L10.78 11.3433L10.912 11.32L11.0413 11.296L11.1687 11.2713L11.2933 11.2453L11.4153 11.2193L11.5347 11.192L11.6513 11.164L11.766 11.1353L11.878 11.106L11.9867 11.076L12.0933 11.046L12.1967 11.0147L12.298 10.9833L12.3967 10.9513L12.492 10.9193L12.5847 10.886L12.6753 10.8533L12.7627 10.82L12.8467 10.786L12.9287 10.752L13.0073 10.718L13.0833 10.6833L13.1567 10.6487L13.2273 10.614L13.2947 10.5793L13.3587 10.5447L13.42 10.51L13.4787 10.4753L13.534 10.4407L13.5867 10.406L13.636 10.372L13.6827 10.3373L13.726 10.3033L13.766 10.27L13.8033 10.236L13.8373 10.2033L13.8527 10.1867L13.868 10.1707L13.882 10.154L13.8953 10.138L13.908 10.122L13.92 10.106L13.9313 10.09L13.9413 10.0747L13.9507 10.0593L13.9593 10.0433L13.9673 10.0287L13.974 10.0133L13.9807 9.998L13.986 9.98333L13.99 9.96867L13.994 9.954L13.9967 9.94L13.9993 9.92533L14 9.91133L14.0007 9.89733V7.138L13.9493 7.174L13.896 7.21L13.8407 7.246L13.784 7.28067L13.726 7.316L13.666 7.35L13.604 7.384L13.5407 7.418L13.476 7.45133L13.4093 7.484L13.3413 7.51667L13.2713 7.54867L13.2007 7.58L13.128 7.61133L13.054 7.642L12.978 7.672L12.9013 7.70133L12.8227 7.73067L12.7427 7.76L12.6613 7.788L12.5787 7.816L12.4947 7.84333L12.4093 7.87L12.3227 7.896L12.2347 7.922L12.1453 7.94733L12.0553 7.972L11.9633 7.996L11.8707 8.02L11.776 8.04333L11.6807 8.06533L11.5847 8.08733L11.4867 8.10933L11.388 8.13L11.288 8.15L11.1873 8.17L11.0853 8.18867L10.9827 8.20733L10.8787 8.22533L10.7733 8.24267L10.6673 8.25933L10.56 8.27533L10.452 8.29067L10.3433 8.30533L10.2333 8.31933L10.1227 8.33267L10.0113 8.34533L9.89865 8.35733L9.78599 8.36867L9.67199 8.37933L9.55665 8.38933L9.44132 8.39867L9.32465 8.40733L9.20799 8.41533L9.08999 8.42267L8.97132 8.42867L8.85199 8.43467L8.73265 8.43933L8.61199 8.444L8.49065 8.44733L8.36932 8.45L8.24665 8.452L8.12399 8.45333H7.87732L7.75465 8.452L7.63198 8.45L7.51065 8.44733L7.38932 8.444L7.26865 8.43933L7.14932 8.43467L7.02998 8.42867L6.91132 8.42267L6.79398 8.41533L6.67665 8.40733L6.55998 8.39867L6.44465 8.38933L6.32999 8.37933L6.21598 8.36867L6.10265 8.35733L5.98998 8.34533L5.87865 8.33267L5.76798 8.31933L5.65798 8.30533L5.54932 8.29067L5.44132 8.27533L5.33398 8.25933L5.22798 8.24267L5.12332 8.22533L5.01932 8.20733L4.91598 8.18867L4.81398 8.17L4.71332 8.15L4.61332 8.13L4.51465 8.10933L4.41732 8.08733L4.32065 8.06533L4.22532 8.04333L4.13132 8.02L4.03798 7.996L3.94665 7.972L3.85598 7.94733L3.76665 7.922L3.67865 7.896L3.59198 7.87L3.50665 7.84333L3.42265 7.816L3.33998 7.788L3.25865 7.75933L3.17865 7.73067L3.10065 7.70133L3.02332 7.672L2.94798 7.64133L2.87332 7.61067L2.80065 7.58L2.72998 7.54867L2.65998 7.51667L2.59198 7.484L2.52532 7.45133L2.46065 7.418L2.39732 7.384L2.33532 7.35L2.27532 7.316L2.21732 7.28067L2.16065 7.246L2.10532 7.21L2.05198 7.174L2.00065 7.138V9.89733ZM2.00065 6.12V6.12733L2.00132 6.14067L2.00332 6.15533L2.00598 6.16933L2.00932 6.184L2.01332 6.198L2.01798 6.21267L2.02398 6.228L2.03065 6.24267L2.03798 6.258L2.04598 6.27333L2.05465 6.28867L2.06465 6.304L2.07532 6.32L2.08665 6.336L2.09865 6.35133L2.11132 6.36733L2.12532 6.384L2.13998 6.4L2.15532 6.416L2.17132 6.43267L2.20598 6.466L2.24332 6.49933L2.28398 6.53267L2.32798 6.56667L2.37465 6.60067L2.42465 6.63533L2.47732 6.66933L2.53332 6.704L2.59198 6.73867L2.65332 6.77333L2.71798 6.808L2.78598 6.84267L2.85598 6.87667L2.92932 6.91133L3.00532 6.94533L3.08465 6.97933L3.16665 7.01333L3.25132 7.04667L3.33865 7.08L3.42865 7.11333L3.52132 7.146L3.61732 7.178L3.71532 7.21L3.81665 7.24133L3.91998 7.272L4.02665 7.302L4.13532 7.332L4.24665 7.36067L4.36065 7.38933L4.47798 7.41733L4.59665 7.444L4.71865 7.47067L4.84332 7.496L4.96998 7.52067L5.09932 7.54467L5.23065 7.56733L5.36532 7.58933L5.50132 7.61067L5.64065 7.63067L5.78198 7.64933L5.92598 7.66733L6.07199 7.684L6.21999 7.7L6.37065 7.714L6.52398 7.72733L6.67932 7.73933L6.83665 7.75067L6.99665 7.76L7.15865 7.768L7.32265 7.77467L7.48865 7.78L7.65732 7.784L7.82799 7.786L8.00065 7.78667L8.17399 7.786L8.34532 7.784L8.51465 7.78L8.68132 7.77467L8.84598 7.768L9.00865 7.75933L9.16932 7.75L9.32732 7.73933L9.48265 7.72733L9.63665 7.714L9.78732 7.69933L9.93665 7.68333L10.0833 7.66667L10.2273 7.64867L10.3687 7.62933L10.5087 7.60933L10.6453 7.588L10.78 7.566L10.912 7.54267L11.0413 7.51867L11.1687 7.494L11.2933 7.468L11.4153 7.442L11.5347 7.41467L11.6513 7.38667L11.766 7.358L11.878 7.32867L11.9867 7.29867L12.0933 7.26867L12.1967 7.23733L12.298 7.206L12.3967 7.174L12.492 7.14133L12.5847 7.10867L12.6753 7.076L12.7627 7.042L12.8467 7.00867L12.9287 6.97467L13.0073 6.94L13.0833 6.906L13.1567 6.87133L13.2273 6.83667L13.2947 6.802L13.3587 6.76733L13.42 6.73267L13.4787 6.698L13.534 6.66333L13.5867 6.62867L13.636 6.594L13.6827 6.56L13.726 6.526L13.766 6.492L13.8033 6.45867L13.8373 6.426L13.8527 6.40933L13.868 6.39267L13.882 6.37667L13.8953 6.36067L13.908 6.34467L13.92 6.32867L13.9313 6.31267L13.9413 6.29733L13.9507 6.28133L13.9593 6.266L13.9673 6.25067L13.974 6.236L13.9807 6.22067L13.986 6.206L13.99 6.19133L13.994 6.17667L13.9967 6.162L13.9993 6.148L14 6.134L14.0007 6.12V3.35133L13.9493 3.38733L13.896 3.42333L13.8407 3.45867L13.784 3.494L13.726 3.52933L13.666 3.56333L13.604 3.59733L13.5407 3.63133L13.476 3.66467L13.4093 3.69733L13.3413 3.72933L13.2713 3.76133L13.2007 3.79333L13.128 3.824L13.054 3.85467L12.978 3.88533L12.9013 3.91467L12.8227 3.944L12.7427 3.97267L12.6613 4.00133L12.5787 4.02933L12.4947 4.05667L12.4093 4.08333L12.3227 4.10933L12.2347 4.13533L12.1453 4.16067L12.0553 4.18533L11.9633 4.20933L11.8707 4.23333L11.776 4.256L11.6807 4.27867L11.5847 4.30067L11.4867 4.322L11.388 4.34333L11.288 4.36333L11.1873 4.38333L11.0853 4.402L10.9827 4.42067L10.8787 4.43867L10.7733 4.456L10.6673 4.472L10.56 4.488L10.452 4.50333L10.3433 4.51867L10.2333 4.53267L10.1227 4.546L10.0113 4.55867L9.89865 4.57067L9.78599 4.582L9.67199 4.59267L9.55665 4.60267L9.44132 4.612L9.32465 4.62067L9.20799 4.62867L9.08999 4.63533L8.97132 4.642L8.85199 4.648L8.73265 4.65267L8.61199 4.65667L8.49065 4.66067L8.36932 4.66333L8.24665 4.66533L8.12399 4.666L8.00065 4.66667L7.87732 4.666L7.75465 4.66533L7.63198 4.66333L7.51065 4.66067L7.38932 4.65667L7.26865 4.65267L7.14932 4.648L7.02998 4.642L6.91132 4.63533L6.79398 4.62867L6.67665 4.62067L6.55998 4.612L6.44465 4.60267L6.32999 4.59267L6.21598 4.582L6.10265 4.57067L5.98998 4.55867L5.87865 4.546L5.76798 4.53267L5.65798 4.51867L5.54932 4.50333L5.44132 4.488L5.33398 4.472L5.22798 4.456L5.12332 4.43867L5.01932 4.42067L4.91598 4.402L4.81398 4.38333L4.71332 4.36333L4.61332 4.34333L4.51465 4.322L4.41732 4.30067L4.32065 4.27867L4.22532 4.256L4.13132 4.23333L4.03798 4.20933L3.94665 4.18533L3.85598 4.16067L3.76665 4.13533L3.67865 4.10933L3.59198 4.08333L3.50665 4.056L3.42265 4.02867L3.33998 4.00133L3.25865 3.97267L3.17865 3.944L3.10065 3.91467L3.02332 3.88533L2.94798 3.85467L2.87332 3.824L2.80065 3.79333L2.72998 3.76133L2.65998 3.72933L2.59198 3.69733L2.52532 3.664L2.46065 3.63133L2.39732 3.59733L2.33532 3.56333L2.27532 3.52867L2.21732 3.494L2.16065 3.45867L2.10532 3.42333L2.05198 3.38733L2.00065 3.35133V6.12ZM7.82732 0.667333L7.65598 0.67L7.48665 0.673333L7.31998 0.678667L7.15532 0.686L6.99265 0.694L6.83198 0.703333L6.67399 0.714L6.51865 0.726L6.36465 0.74L6.21398 0.754667L6.06465 0.77L5.91798 0.787333L5.77398 0.805333L5.63265 0.824L5.49265 0.844667L5.35598 0.866L5.22132 0.888L5.08932 0.910667L4.95998 0.934667L4.83265 0.96L4.70798 0.985333L4.58598 1.012L4.46665 1.03933L4.34998 1.06733L4.23532 1.096L4.12332 1.12467L4.01465 1.15467L3.90798 1.18533L3.80465 1.216L3.70332 1.248L3.60465 1.28L3.50932 1.312L3.41665 1.34467L3.32598 1.378L3.23865 1.41133L3.15465 1.44533L3.07265 1.47933L2.99398 1.51333L2.91798 1.548L2.84465 1.58267L2.77398 1.61733L2.70665 1.652L2.64265 1.68667L2.58132 1.72133L2.52265 1.756L2.46732 1.79067L2.41465 1.82533L2.36532 1.85933L2.31865 1.894L2.27532 1.928L2.23532 1.96133L2.19798 1.99467L2.16398 2.028L2.14865 2.04467L2.13332 2.06067L2.11932 2.07667L2.10598 2.09333L2.09332 2.10933L2.08132 2.12533L2.06998 2.14067L2.05998 2.15667L2.05065 2.172L2.04198 2.18733L2.03398 2.20267L2.02732 2.218L2.02065 2.23267L2.01532 2.24733L2.01132 2.26267L2.00732 2.27667L2.00465 2.29133L2.00198 2.30533L2.00132 2.31933L2.00065 2.33333L2.00132 2.34733L2.00198 2.36133L2.00465 2.37533L2.00732 2.39L2.01132 2.404L2.01532 2.41933L2.02065 2.434L2.02732 2.44867L2.03398 2.464L2.04198 2.47933L2.05065 2.49467L2.05998 2.51L2.06998 2.526L2.08132 2.54133L2.09332 2.55733L2.10598 2.57333L2.11932 2.59L2.13332 2.606L2.14865 2.622L2.16398 2.63867L2.19798 2.672L2.23532 2.70533L2.27532 2.73867L2.31865 2.77267L2.36532 2.80733L2.41465 2.84133L2.46732 2.876L2.52265 2.91067L2.58132 2.94533L2.64265 2.98L2.70665 3.01467L2.77398 3.04933L2.84465 3.084L2.91798 3.11867L2.99398 3.15333L3.07265 3.18733L3.15465 3.22133L3.23865 3.25533L3.32598 3.28867L3.41665 3.322L3.50932 3.35467L3.60465 3.38667L3.70332 3.41867L3.80465 3.45067L3.90798 3.48133L4.01465 3.512L4.12332 3.542L4.23532 3.57067L4.34998 3.59933L4.46665 3.62733L4.58598 3.65467L4.70798 3.68133L4.83265 3.70667L4.95998 3.732L5.08932 3.756L5.22132 3.77867L5.35598 3.80067L5.49265 3.822L5.63265 3.84267L5.77398 3.86133L5.91798 3.87933L6.06465 3.89667L6.21398 3.912L6.36465 3.92667L6.51865 3.94067L6.67399 3.95267L6.83198 3.96333L6.99265 3.97267L7.15532 3.98067L7.31998 3.988L7.48665 3.99333L7.65598 3.99667L7.82732 3.99933L8.00065 4L8.17399 3.99933L8.34532 3.99667L8.51465 3.99333L8.68132 3.988L8.84598 3.98067L9.00865 3.97267L9.16932 3.96333L9.32732 3.95267L9.48265 3.94067L9.63665 3.92667L9.78732 3.912L9.93665 3.89667L10.0833 3.87933L10.2273 3.86133L10.3687 3.84267L10.5087 3.822L10.6453 3.80067L10.78 3.77867L10.912 3.756L11.0413 3.732L11.1687 3.70667L11.2933 3.68133L11.4153 3.65467L11.5347 3.62733L11.6513 3.59933L11.766 3.57067L11.878 3.542L11.9867 3.512L12.0933 3.48133L12.1967 3.45067L12.298 3.41867L12.3967 3.38667L12.492 3.35467L12.5847 3.322L12.6753 3.28867L12.7627 3.25533L12.8467 3.22133L12.9287 3.18733L13.0073 3.15333L13.0833 3.11867L13.1567 3.084L13.2273 3.04933L13.2947 3.01467L13.3587 2.98L13.42 2.94533L13.4787 2.91067L13.534 2.876L13.5867 2.84133L13.636 2.80733L13.6827 2.77267L13.726 2.73867L13.766 2.70533L13.8033 2.672L13.8373 2.63867L13.8527 2.622L13.868 2.606L13.882 2.59L13.8953 2.57333L13.908 2.55733L13.92 2.54133L13.9313 2.526L13.9413 2.51L13.9507 2.49467L13.9593 2.47933L13.9673 2.464L13.974 2.44867L13.9807 2.434L13.986 2.41933L13.99 2.404L13.994 2.39L13.9967 2.37533L13.9993 2.36133L14 2.34733L14.0007 2.33333L14 2.31933L13.9993 2.30533L13.9967 2.29133L13.994 2.27667L13.99 2.26267L13.986 2.24733L13.9807 2.23267L13.974 2.218L13.9673 2.20267L13.9593 2.18733L13.9507 2.172L13.9413 2.15667L13.9313 2.14067L13.92 2.12533L13.908 2.10933L13.8953 2.09333L13.882 2.07667L13.868 2.06067L13.8527 2.04467L13.8373 2.028L13.8033 1.99467L13.766 1.96133L13.726 1.928L13.6827 1.894L13.636 1.85933L13.5867 1.82533L13.534 1.79067L13.4787 1.756L13.42 1.72133L13.3587 1.68667L13.2947 1.652L13.2273 1.61733L13.1567 1.58267L13.0833 1.548L13.0073 1.51333L12.9287 1.47933L12.8467 1.44533L12.7627 1.41133L12.6753 1.378L12.5847 1.34467L12.492 1.312L12.3967 1.28L12.298 1.248L12.1967 1.216L12.0933 1.18533L11.9867 1.15467L11.878 1.12467L11.766 1.096L11.6513 1.06733L11.5347 1.03933L11.4153 1.012L11.2933 0.985333L11.1687 0.96L11.0413 0.934667L10.912 0.910667L10.78 0.888L10.6453 0.866L10.5087 0.844667L10.3687 0.824L10.2273 0.805333L10.0833 0.787333L9.93665 0.77L9.78732 0.754667L9.63665 0.74L9.48265 0.726L9.32732 0.714L9.16932 0.703333L9.00865 0.694L8.84598 0.686L8.68132 0.678667L8.51465 0.673333L8.34532 0.67L8.17399 0.667333L8.00065 0.666667L7.82732 0.667333Z" fill="#787878"/>
</svg>
