<svg width="960" height="376" viewBox="0 0 960 376" fill="none" xmlns="http://www.w3.org/2000/svg">
<path fill-rule="evenodd" clip-rule="evenodd" d="M203.915 59.7339C205.573 60.9409 205.933 63.2551 204.719 64.9028L191.033 83.4866L212.978 76.7955C214.51 76.3284 216.171 76.8897 217.1 78.1884C218.029 79.4872 218.017 81.2313 217.071 82.5168L203.183 101.374L225.782 94.9403C227.329 94.5 228.986 95.0987 229.887 96.424C230.789 97.7493 230.732 99.5007 229.745 100.764L216.068 118.279L237.488 111.748C239.026 111.279 240.694 111.847 241.62 113.155C242.547 114.464 242.522 116.216 241.56 117.497L221.062 144.793C219.833 146.429 217.502 146.765 215.856 145.543C214.21 144.32 213.872 142.003 215.101 140.367L228.79 122.137L207.014 128.777C205.464 129.25 203.783 128.669 202.862 127.341C201.94 126.014 201.99 124.246 202.985 122.972L216.889 105.166L194.789 111.458C193.261 111.893 191.623 111.314 190.713 110.017C189.804 108.72 189.824 106.992 190.763 105.717L204.45 87.1329L182.504 93.824C180.972 94.2911 179.311 93.7298 178.382 92.4311C177.453 91.1323 177.465 89.3881 178.412 88.1026L198.717 60.5317C199.93 58.8841 202.258 58.5269 203.915 59.7339Z" fill="#FF6666"/>
<path fill-rule="evenodd" clip-rule="evenodd" d="M27.7745 2.98804C28.6575 4.83266 27.8705 7.04051 26.0167 7.91941L16.3759 12.4902L26.6864 14.664C28.2453 14.9926 29.4202 16.2733 29.6075 17.8481C29.7948 19.4228 28.9529 20.9413 27.5142 21.6233L17.5723 26.3369L28.2997 28.8114C29.8584 29.1709 31.011 30.4826 31.1612 32.0678C31.3114 33.653 30.4256 35.1561 28.9619 35.7996L19.8746 39.7951L29.6581 41.8577C31.2233 42.1877 32.4007 43.4772 32.5812 45.0592C32.7618 46.6412 31.905 48.1608 30.454 48.832L10.8841 57.8851C9.02203 58.7465 6.81097 57.9428 5.94556 56.0899C5.08015 54.237 5.8881 52.0367 7.75018 51.1753L17.213 46.7978L7.07198 44.6598C5.49396 44.3271 4.31168 43.0197 4.14499 41.4232C3.9783 39.8266 4.86523 38.305 6.34079 37.6563L15.7604 33.5148L5.52889 31.1547C3.98922 30.7996 2.8436 29.5145 2.67274 27.951C2.50187 26.3874 3.34312 24.8871 4.77005 24.2106L14.4109 19.6398L4.10031 17.466C2.54143 17.1374 1.36649 15.8567 1.17919 14.282C0.991881 12.7073 1.83386 11.1888 3.27252 10.5067L22.819 1.23947C24.6728 0.360564 26.8915 1.14343 27.7745 2.98804Z" fill="#FFD700"/>
<path fill-rule="evenodd" clip-rule="evenodd" d="M954.031 2.99245C954.914 4.83713 954.128 7.04479 952.274 7.92338L942.634 12.4926L952.945 14.6678C954.504 14.9967 955.679 16.2776 955.867 17.8522C956.054 19.4269 955.212 20.9452 953.774 21.6271L943.832 26.339L954.56 28.815C956.119 29.1748 957.272 30.4865 957.422 32.0717C957.573 33.6569 956.687 35.1599 955.224 35.8031L946.137 39.797L955.921 41.8611C957.486 42.1913 958.664 43.481 958.845 45.0629C959.025 46.6449 958.169 48.1643 956.718 48.8353L937.149 57.8851C935.287 58.7462 933.075 57.9421 932.21 56.0892C931.344 54.2363 932.152 52.0362 934.014 51.1751L943.476 46.7991L933.334 44.6596C931.756 44.3267 930.574 43.0192 930.407 41.4227C930.24 39.8261 931.127 38.3048 932.602 37.6563L942.021 33.5164L931.789 31.1548C930.249 30.7995 929.104 29.5143 928.932 27.9507C928.761 26.3872 929.602 24.8871 931.029 24.2108L940.67 19.6416L930.358 17.4664C928.799 17.1375 927.624 15.8567 927.437 14.282C927.249 12.7073 928.091 11.189 929.53 10.5071L949.075 1.24318C950.929 0.364588 953.148 1.14776 954.031 2.99245Z" fill="#FF6666"/>
<path fill-rule="evenodd" clip-rule="evenodd" d="M786.126 27.566C785.615 29.011 784.022 29.7703 782.569 29.2619L767.31 23.9241L776.222 37.163C776.89 38.1554 776.844 39.4618 776.108 40.4056C775.371 41.3494 774.11 41.7187 772.977 41.3224L757.478 35.9006L766.359 49.6438C767.011 50.6526 766.937 51.9637 766.175 52.8939C765.414 53.824 764.138 54.1624 763.012 53.7328L748.506 48.1967L757.188 61.0955C757.859 62.0919 757.81 63.4042 757.066 64.3483C756.322 65.2925 755.053 65.6547 753.919 65.2462L730.904 56.9542C729.456 56.4323 728.707 54.8418 729.233 53.4016C729.758 51.9614 731.358 51.2169 732.806 51.7388L747.816 57.1469L738.978 44.0174C738.302 43.013 738.358 41.6888 739.117 40.7441C739.876 39.7994 741.162 39.4519 742.297 39.885L757.062 45.5199L748.392 32.102C747.748 31.1053 747.811 29.8118 748.551 28.8823C749.29 27.9529 750.541 27.5928 751.665 27.986L766.923 33.3237L758.012 20.0849C757.344 19.0924 757.39 17.7861 758.126 16.8423C758.863 15.8985 760.124 15.5291 761.257 15.9255L784.421 24.0291C785.875 24.5374 786.638 26.121 786.126 27.566Z" fill="#5BDCC5"/>
<path fill-rule="evenodd" clip-rule="evenodd" d="M319.286 46.8149C321.311 46.4793 323.227 47.841 323.565 49.8565L329.673 86.2913C330.011 88.3067 328.642 90.2126 326.617 90.5482C324.591 90.8838 322.676 89.5221 322.338 87.5067L316.23 51.0719C315.892 49.0565 317.26 47.1505 319.286 46.8149Z" fill="#FFD700"/>
<path fill-rule="evenodd" clip-rule="evenodd" d="M66.4319 181.93C64.6913 180.845 64.1645 178.563 65.2552 176.832L75.1146 161.184C76.2053 159.453 78.5006 158.928 80.2412 160.012C81.9817 161.096 82.5086 163.378 81.4178 165.109L71.5584 180.758C70.4677 182.489 68.1725 183.014 66.4319 181.93Z" fill="#5BDCC5"/>
<path fill-rule="evenodd" clip-rule="evenodd" d="M679.598 183.719C679.484 181.679 681.055 179.934 683.105 179.821L701.654 178.803C703.704 178.69 705.458 180.253 705.572 182.293C705.685 184.333 704.115 186.078 702.064 186.191L683.515 187.209C681.465 187.322 679.711 185.759 679.598 183.719Z" fill="#FFD700"/>
<path fill-rule="evenodd" clip-rule="evenodd" d="M916.977 184.654C918.939 185.256 920.039 187.326 919.434 189.279L913.35 208.893C912.744 210.845 910.662 211.94 908.7 211.339C906.738 210.737 905.638 208.667 906.244 206.714L912.327 187.1C912.933 185.147 915.015 184.052 916.977 184.654Z" fill="#FF6666"/>
<path fill-rule="evenodd" clip-rule="evenodd" d="M956.631 363.126C957.289 365.062 956.245 367.161 954.3 367.814L934.94 374.317C932.994 374.97 930.884 373.931 930.226 371.995C929.569 370.06 930.612 367.961 932.558 367.307L951.918 360.805C953.863 360.151 955.974 361.191 956.631 363.126Z" fill="#FFD700"/>
<path d="M601.763 78.8272C601.763 83.9284 597.604 88.0638 592.473 88.0638C587.342 88.0638 583.183 83.9284 583.183 78.8272C583.183 73.7259 587.342 69.5905 592.473 69.5905C597.604 69.5905 601.763 73.7259 601.763 78.8272Z" fill="#FFD700"/>
<path d="M18.9633 361.469C18.9633 365.55 15.6357 368.858 11.531 368.858C7.42621 368.858 4.09863 365.55 4.09863 361.469C4.09863 357.388 7.42621 354.08 11.531 354.08C15.6357 354.08 18.9633 357.388 18.9633 361.469Z" fill="#5BDCC5"/>
<path d="M156.464 232.156C156.464 235.216 153.968 237.698 150.89 237.698C147.811 237.698 145.315 235.216 145.315 232.156C145.315 229.095 147.811 226.614 150.89 226.614C153.968 226.614 156.464 229.095 156.464 232.156Z" fill="#FF6666"/>
</svg>
