<svg width="104" height="104" viewBox="0 0 104 104" fill="none" xmlns="http://www.w3.org/2000/svg">
<circle cx="52" cy="52" r="52" fill="#16C79A"/>
<g clip-path="url(#clip0_659_2578)">
<path fill-rule="evenodd" clip-rule="evenodd" d="M51.9079 50.0004C58.5679 50.0004 66.0219 62.2464 67.1719 67.4324C68.3219 72.6204 65.1799 76.8904 60.2039 75.6564C58.0199 75.1144 53.6999 73.0424 51.9999 73.0744C50.1499 73.1064 47.2419 74.7464 44.8259 75.5784C39.5119 77.4104 35.3919 73.0124 36.8059 67.4324C38.3539 61.3304 45.7659 50.0004 51.9079 50.0004V50.0004ZM73.4939 41.2204C75.8699 42.2984 76.7519 46.8604 75.2819 51.7604C73.8739 56.4424 70.6219 59.3724 66.1699 57.3524C62.3079 55.5984 61.8539 50.9964 64.3819 46.8124C66.9299 42.5984 71.1159 40.1404 73.4939 41.2204V41.2204ZM29.5579 42.6324C27.4699 44.0904 27.4379 48.6244 29.7219 53.0624C31.9059 57.3024 35.5479 59.5344 39.4579 56.8024C42.8499 54.4324 42.4659 49.9364 39.2939 46.3724C36.1019 42.7864 31.6459 41.1744 29.5579 42.6324V42.6324ZM60.8439 28.0484C63.4899 28.5504 65.4859 32.9044 65.2079 38.1724C64.9399 43.2064 62.3979 46.9364 57.4439 45.9964C53.1459 45.1824 51.5679 40.6824 53.0819 35.8744C54.6039 31.0324 58.1999 27.5464 60.8439 28.0484V28.0484ZM40.2539 28.1644C37.7179 29.0664 36.4139 33.6764 37.4999 38.8384C38.5379 43.7724 41.6239 47.0664 46.3739 45.3764C50.4939 43.9124 51.3619 39.2224 49.1279 34.7044C46.8779 30.1524 42.7899 27.2624 40.2539 28.1644V28.1644Z" fill="white"/>
</g>
<defs>
<clipPath id="clip0_659_2578">
<rect width="48" height="48" fill="white" transform="translate(28 28)"/>
</clipPath>
</defs>
</svg>
