<svg width="24" height="24" viewBox="0 0 24 24" fill="none" xmlns="http://www.w3.org/2000/svg">
<g clip-path="url(#clip0_382_612)">
<path d="M16.949 7.051C17.339 7.44 17.34 8.073 16.95 8.464L8.46496 16.95C8.07296 17.341 7.44196 17.341 7.05096 16.95C6.66096 16.56 6.66096 15.929 7.05196 15.538L15.537 7.05C15.927 6.66 16.561 6.663 16.949 7.051ZM11.144 17.094C10.98 17.848 10.603 18.58 9.99796 19.182L8.33796 20.842C6.78296 22.401 4.35196 22.505 2.92496 21.077C1.49596 19.649 1.60196 17.22 3.15896 15.664L4.81996 14.001C5.42296 13.4 6.15396 13.021 6.90696 12.857L8.84096 10.923C7.02396 10.617 5.01196 11.218 3.52796 12.706L1.86596 14.367C-0.476039 16.707 -0.634039 20.345 1.51196 22.49C3.65696 24.636 7.29496 24.475 9.63496 22.136L11.295 20.476C12.781 18.989 13.384 16.98 13.078 15.162L11.144 17.094ZM14.366 1.863L12.706 3.523C11.22 5.011 10.617 7.022 10.923 8.84L12.858 6.905C13.02 6.152 13.398 5.42 14.004 4.818L15.664 3.158C17.22 1.599 19.648 1.495 21.077 2.924C22.506 4.351 22.401 6.781 20.844 8.339L19.184 9.999C18.582 10.602 17.85 10.98 17.095 11.144L15.161 13.078C16.979 13.384 18.988 12.783 20.478 11.295L22.136 9.633C24.476 7.294 24.634 3.657 22.49 1.512C20.345 -0.634 16.71 -0.475 14.366 1.863Z" fill="#292F33"/>
</g>
<defs>
<clipPath id="clip0_382_612">
<rect width="24" height="24" fill="white"/>
</clipPath>
</defs>
</svg>
