<svg width="20" height="20" viewBox="0 0 20 20" fill="none" xmlns="http://www.w3.org/2000/svg">
<path d="M13.8333 12.5V12.01L13.3434 12.0001L13.3333 12.5C13.3434 12.0001 13.3432 12.0001 13.343 12.0001L13.3424 12.0001L13.3407 12L13.3348 12L13.3139 11.9997C13.296 11.9995 13.2701 11.9993 13.2366 11.9993C13.1696 11.9993 13.0722 12.0001 12.9474 12.0028C12.6977 12.0084 12.338 12.0223 11.8922 12.0554C11.0014 12.1214 9.7631 12.2644 8.36997 12.5724C6.06954 13.0811 3.3082 14.0484 0.999191 15.897C2.38776 12.162 5.16203 9.83156 7.75904 8.39951C9.2455 7.57984 10.6649 7.0602 11.7128 6.74578C12.2362 6.58874 12.6654 6.48334 12.9619 6.41752C13.1101 6.38461 13.225 6.36162 13.3018 6.34703C13.3402 6.33973 13.3691 6.33453 13.3879 6.33125L13.4083 6.32773L13.4127 6.327L13.413 6.32694L13.4133 6.32689L13.4133 6.32689L13.8333 6.25907V5.83333V3.70337L19.2929 9.13905L13.8333 14.6225V12.5Z" stroke="#787878"/>
</svg>
