<svg width="16" height="16" viewBox="0 0 16 16" fill="none" xmlns="http://www.w3.org/2000/svg">
<g clip-path="url(#clip0_377_670)">
<path fill-rule="evenodd" clip-rule="evenodd" d="M8 5.77733C6.77467 5.77733 5.778 6.77467 5.778 8C5.778 9.22533 6.77467 10.222 8 10.222C9.22533 10.222 10.222 9.22533 10.222 8C10.222 6.77467 9.22533 5.77733 8 5.77733ZM8 10.8887C6.40667 10.8887 5.11133 9.59333 5.11133 8C5.11133 6.40667 6.40667 5.11067 8 5.11067C9.59333 5.11067 10.8887 6.40667 10.8887 8C10.8887 9.59333 9.59333 10.8887 8 10.8887ZM7.20467 15.3333H8.79533C9.048 14.5973 9.24067 13.6993 10.2 13.3C11.1973 12.8887 11.9773 13.4307 12.6233 13.748L13.7473 12.6227C13.4087 11.9247 12.9033 11.1567 13.3013 10.1953C13.6793 9.28267 14.4607 9.08667 15.3333 8.796V7.204C14.51 6.92333 13.686 6.732 13.302 5.80533C12.9207 4.88533 13.34 4.20867 13.748 3.37667L12.6233 2.25267C11.8787 2.61733 11.1427 3.09067 10.1953 2.698C9.27933 2.31733 9.09133 1.542 8.79533 0.666667H7.20467C6.922 1.48733 6.73533 2.312 5.80533 2.69733C5.562 2.79933 5.32667 2.848 5.08733 2.848C4.52533 2.848 4.06133 2.58667 3.37667 2.25267L2.252 3.37667C2.63467 4.16 3.086 4.868 2.698 5.80533C2.31733 6.722 1.542 6.908 0.666667 7.204V8.796C1.484 9.07467 2.312 9.266 2.698 10.1947C3.08533 11.13 2.648 11.816 2.252 12.6233L3.37667 13.748C4.34333 13.2647 4.94667 12.9453 5.80467 13.302C6.72333 13.6833 6.908 14.4607 7.20467 15.3333ZM9.26733 16H6.732C6.278 14.7213 6.20867 14.1913 5.55 13.918C4.88 13.6387 4.396 14.006 3.23933 14.5527L1.44667 12.76C2.02867 11.5353 2.358 11.1167 2.082 10.45C1.80733 9.78933 1.28733 9.72533 0 9.268V6.732C1.27067 6.28 1.808 6.21067 2.082 5.55C2.356 4.88933 2.03467 4.47467 1.44667 3.23933L3.23933 1.44733C4.4 1.99933 4.88333 2.35733 5.54933 2.08267C6.21067 1.808 6.27067 1.29267 6.73267 0H9.26733C9.722 1.27867 9.79267 1.80933 10.45 2.082C11.1173 2.35933 11.5893 2.00267 12.7613 1.44733L14.5527 3.23933C13.9673 4.47067 13.6453 4.89067 13.918 5.54933C14.192 6.21067 14.7127 6.274 16 6.732V9.26867C14.7293 9.72 14.1913 9.79 13.9173 10.4507C13.6487 11.1007 13.9467 11.4913 14.5533 12.76L12.7613 14.5527C11.6093 14.006 11.1167 13.6393 10.4573 13.916C9.79867 14.1893 9.73733 14.68 9.26733 16Z" fill="#787878"/>
</g>
<defs>
<clipPath id="clip0_377_670">
<rect width="16" height="16" fill="white"/>
</clipPath>
</defs>
</svg>
