<svg width="20" height="20" viewBox="0 0 20 20" fill="none" xmlns="http://www.w3.org/2000/svg">
<path fill-rule="evenodd" clip-rule="evenodd" d="M10 0.833328C4.71833 0.833328 0 4.35499 0 9.17249C0 10.8808 0.615833 12.5583 1.70583 13.86L0.045 19.1667L5.83333 16.6667C7.25417 17.0325 8.61167 17.2008 9.88667 17.2008C15.865 17.2008 20 13.5017 20 9.17249C20 4.32916 15.2492 0.833328 10 0.833328ZM10 1.66666C15.0542 1.66666 19.1667 5.03416 19.1667 9.17249C19.1667 13.2742 15.1775 16.3675 9.88667 16.3675C8.31917 16.3675 7.0525 16.1183 5.765 15.7883L1.38333 17.6808L2.6375 13.6742C1.5475 12.3708 0.833333 11.0675 0.833333 9.17249C0.833333 5.03416 4.94583 1.66666 10 1.66666Z" fill="#787878"/>
</svg>
