<svg width="28" height="26" viewBox="0 0 28 26" fill="none" xmlns="http://www.w3.org/2000/svg">
<g clip-path="url(#clip0_382_633)">
<path d="M10.2322 11.9668H11.8449L11.0385 9.69086L10.2322 11.9668Z" fill="#292F33"/>
<path d="M14 0C6.26769 0 0 4.90895 0 10.9652C0 14.8806 2.62096 18.32 6.5625 20.2563C6.34846 20.9904 5.18404 24.982 5.13827 25.2963C5.13827 25.2963 5.11 25.5316 5.26346 25.6212C5.31481 25.6469 5.3709 25.662 5.4283 25.6654C5.48571 25.6689 5.54321 25.6607 5.59731 25.6413C6.03885 25.5797 10.7127 22.3236 11.5204 21.7633C12.342 21.8766 13.1705 21.9325 14 21.9305C21.7323 21.9305 28 17.0215 28 10.9652C28 4.90895 21.7323 0 14 0ZM7.07135 9.26295C7.05385 10.8141 7.08481 12.4455 7.05923 13.9726C7.05115 14.4607 6.76846 14.6065 6.38615 14.7456C6.34296 14.7607 6.29644 14.764 6.25154 14.7549C5.81404 14.6693 5.46538 14.5142 5.45462 13.974C5.42365 12.4482 5.46404 10.8141 5.4425 9.26295C5.07231 9.24824 4.54462 9.27766 4.20135 9.26295C3.72481 9.23219 3.39365 8.93131 3.41385 8.48335C3.43404 8.03537 3.675 7.7131 4.20942 7.70508C5.47212 7.68636 7.03635 7.68636 8.29904 7.70508C8.8375 7.7131 9.07712 8.03671 9.09327 8.48335C9.10942 8.92998 8.78365 9.23219 8.30846 9.26295C7.96923 9.27766 7.44288 9.24824 7.07135 9.26295ZM13.856 14.672C13.6945 14.745 13.5191 14.7829 13.3417 14.783C13.0052 14.783 12.7481 14.6493 12.6687 14.4286L12.2648 13.3883H9.80673L9.40288 14.4286C9.32481 14.6466 9.06769 14.783 8.72981 14.783C8.55281 14.783 8.37788 14.7451 8.21692 14.672C7.99346 14.5704 7.77942 14.2896 8.02442 13.5327L9.96154 8.48067C10.0428 8.25814 10.1883 8.06434 10.3798 7.92353C10.5714 7.78272 10.8005 7.70116 11.0385 7.68903C11.2763 7.70246 11.5049 7.78468 11.6963 7.92558C11.8876 8.06647 12.0333 8.25989 12.1154 8.48201L14.0458 13.5314C14.2921 14.2896 14.0781 14.5757 13.856 14.672ZM17.9375 14.672H15.3462C15.1455 14.676 14.9514 14.6008 14.8063 14.463C14.6613 14.3252 14.5771 14.1359 14.5721 13.9365V8.49137C14.5807 8.27987 14.6714 8.07987 14.825 7.93325C14.9787 7.78663 15.1835 7.70475 15.3966 7.70475C15.6097 7.70475 15.8145 7.78663 15.9682 7.93325C16.1219 8.07987 16.2125 8.27987 16.2212 8.49137V13.2051H17.9375C18.0385 13.199 18.1396 13.2136 18.2348 13.2478C18.3299 13.282 18.417 13.3352 18.4906 13.4041C18.5643 13.473 18.623 13.5561 18.6631 13.6484C18.7032 13.7406 18.7239 13.8401 18.7239 13.9406C18.7239 14.041 18.7032 14.1405 18.6631 14.2327C18.623 14.325 18.5643 14.4081 18.4906 14.477C18.417 14.5459 18.3299 14.5991 18.2348 14.6333C18.1396 14.6675 18.0385 14.6821 17.9375 14.676V14.672ZM24.2644 14.0676C24.2434 14.2259 24.1753 14.3743 24.0689 14.4939C23.9625 14.6136 23.8226 14.6989 23.6671 14.7391C23.5115 14.7794 23.3475 14.7726 23.1959 14.7196C23.0442 14.6667 22.912 14.57 22.816 14.442L20.9219 11.9508L20.6419 12.2289V13.9793C20.6419 14.1921 20.5568 14.3962 20.4054 14.5467C20.2539 14.6971 20.0484 14.7817 19.8342 14.7817C19.62 14.7817 19.4146 14.6971 19.2631 14.5467C19.1116 14.3962 19.0265 14.1921 19.0265 13.9793V8.49672C19.0265 8.28393 19.1116 8.07985 19.2631 7.92938C19.4146 7.77891 19.62 7.69438 19.8342 7.69438C20.0484 7.69438 20.2539 7.77891 20.4054 7.92938C20.5568 8.07985 20.6419 8.28393 20.6419 8.49672V10.2164L22.8954 7.97787C22.9544 7.91993 23.0244 7.87424 23.1014 7.84348C23.1783 7.81271 23.2607 7.79748 23.3437 7.79869C23.5453 7.80395 23.738 7.88303 23.8846 8.02074C24.0312 8.15846 24.1214 8.34511 24.1379 8.54486C24.1451 8.63399 24.1332 8.72364 24.1028 8.80781C24.0723 8.89198 24.0242 8.96873 23.9615 9.03294L22.1173 10.8609L24.1056 13.4779C24.2343 13.6476 24.29 13.8611 24.2604 14.0716L24.2644 14.0676Z" fill="#292F33"/>
</g>
<defs>
<clipPath id="clip0_382_633">
<rect width="28" height="25.6667" fill="white"/>
</clipPath>
</defs>
</svg>
