<svg width="16" height="16" viewBox="0 0 16 16" fill="none" xmlns="http://www.w3.org/2000/svg">
<path fill-rule="evenodd" clip-rule="evenodd" d="M16 12.6667H15.3333V11.2C14.098 14.0247 11.278 16 8 16C3.58467 16 0 12.4153 0 8H0.666667C0.666667 12.0473 3.95267 15.3333 8 15.3333C11.1067 15.3333 13.7647 13.3973 14.8327 10.6667H13.3333V10H16V12.6667ZM8.81867 12.6667H7.18067C6.882 11.8093 6.85467 11.6007 6.56 11.4793C6.248 11.3507 6.04667 11.5087 5.27867 11.878L4.12133 10.7213C4.51267 9.91 4.64533 9.73933 4.52133 9.44C4.396 9.13933 4.16933 9.11 3.33333 8.81867V7.18067C4.19 6.882 4.39867 6.85533 4.52133 6.55933C4.64933 6.24933 4.49467 6.054 4.12133 5.27867L5.27867 4.12133C6.054 4.49533 6.25667 4.64933 6.55933 4.52133C6.866 4.394 6.896 4.15067 7.18067 3.33333H8.81867C9.118 4.19133 9.14533 4.39933 9.44 4.52067C9.75067 4.65 9.95733 4.49067 10.7213 4.12133L11.878 5.27867C11.4907 6.084 11.3553 6.26067 11.4787 6.55933C11.606 6.866 11.8493 6.896 12.6667 7.18067V8.81867C11.82 9.11333 11.602 9.14333 11.4787 9.44067C11.354 9.742 11.4933 9.922 11.878 10.7213L10.7213 11.878C9.99067 11.5273 9.75333 11.346 9.444 11.4773C9.134 11.606 9.10533 11.846 8.81867 12.6667ZM8.34533 4H7.65467C7.49267 4.48133 7.34667 4.91667 6.81467 5.13667C6.31867 5.34333 5.89267 5.158 5.416 4.92733L4.92733 5.416C5.16933 5.90933 5.35667 6.28467 5.13733 6.81467C4.90867 7.366 4.49133 7.47533 4 7.654V8.35133C4.482 8.514 4.91667 8.65333 5.13733 9.18467C5.35867 9.71933 5.15933 10.1033 4.92733 10.5847L5.416 11.072C5.89 10.84 6.31933 10.6573 6.81467 10.8627C7.31933 11.072 7.48867 11.4687 7.654 12H8.34C8.50267 11.518 8.654 11.0833 9.188 10.8613C9.70333 10.648 10.1213 10.8547 10.584 11.072L11.0713 10.584C10.8473 10.1013 10.634 9.73867 10.8627 9.18533C11.092 8.63333 11.5047 8.52867 12 8.34533V7.65467C11.5173 7.49267 11.0833 7.346 10.8627 6.81467C10.6427 6.28267 10.8333 5.90333 11.0727 5.416L10.5847 4.92733C10.108 5.15667 9.688 5.34533 9.18533 5.13733C8.65933 4.91933 8.52267 4.52267 8.34533 4ZM7.986 9.66667C7.06733 9.66667 6.31933 8.91867 6.31933 8C6.31933 7.08133 7.06733 6.33333 7.986 6.33333C8.90467 6.33333 9.65267 7.08133 9.65267 8C9.65267 8.91867 8.90467 9.66667 7.986 9.66667ZM7.986 7C7.43467 7 6.986 7.44867 6.986 8C6.986 8.55133 7.43467 9 7.986 9C8.53733 9 8.986 8.55133 8.986 8C8.986 7.44867 8.53733 7 7.986 7ZM2.66667 6H0V3.33333H0.666667V4.8C1.902 1.97533 4.722 0 8 0C12.4153 0 16 3.58467 16 8H15.3333C15.3333 3.95267 12.0473 0.666667 8 0.666667C4.89333 0.666667 2.23533 2.60267 1.16733 5.33333H2.66667V6Z" fill="#787878"/>
</svg>
