<svg width="24" height="24" viewBox="0 0 24 24" fill="none" xmlns="http://www.w3.org/2000/svg">
<path fill-rule="evenodd" clip-rule="evenodd" d="M24 22H0V2H24V22ZM23 3H1V21H23V3ZM22 19H3L7 11.508L10 14.556L15.013 7L22 19ZM10.152 16.135L7.242 13.179L4.668 18H20.261L14.958 8.892L10.152 16.135ZM5.5 5C6.88 5 8 6.12 8 7.5C8 8.88 6.88 10 5.5 10C4.12 10 3 8.88 3 7.5C3 6.12 4.12 5 5.5 5ZM5.5 6C6.328 6 7 6.672 7 7.5C7 8.328 6.328 9 5.5 9C4.672 9 4 8.328 4 7.5C4 6.672 4.672 6 5.5 6Z" fill="#C4C4C4"/>
</svg>
