<svg width="120" height="16" viewBox="0 0 120 16" fill="none" xmlns="http://www.w3.org/2000/svg">
<path d="M9.7 15H7.5V9.14C7.5 8.15333 7.34 7.44 7.02 7C6.71333 6.54667 6.25333 6.32 5.64 6.32C5.21333 6.32 4.78667 6.42667 4.36 6.64C3.94667 6.85333 3.57333 7.14667 3.24 7.52C2.90667 7.89333 2.66667 8.31333 2.52 8.78V15H0.32V4.54H2.32V6.64C2.72 5.94667 3.3 5.39333 4.06 4.98C4.82 4.56667 5.66 4.36 6.58 4.36C7.40667 4.36 8.04667 4.56 8.5 4.96C8.95333 5.34667 9.26667 5.86 9.44 6.5C9.61333 7.14 9.7 7.84667 9.7 8.62V15ZM16.5936 15.2C15.5136 15.2 14.5669 14.9533 13.7536 14.46C12.9403 13.9667 12.3069 13.3133 11.8536 12.5C11.4003 11.6733 11.1736 10.7733 11.1736 9.8C11.1736 8.81333 11.4003 7.90667 11.8536 7.08C12.3069 6.25333 12.9403 5.59333 13.7536 5.1C14.5669 4.60667 15.5203 4.36 16.6136 4.36C17.7069 4.36 18.6536 4.61333 19.4536 5.12C20.2536 5.61333 20.8669 6.26667 21.2936 7.08C21.7336 7.89333 21.9536 8.76667 21.9536 9.7C21.9536 10.0333 21.9336 10.3 21.8936 10.5H13.5136C13.5536 11.1133 13.7203 11.6533 14.0136 12.12C14.3203 12.5733 14.7003 12.9333 15.1536 13.2C15.6203 13.4533 16.1269 13.58 16.6736 13.58C17.2603 13.58 17.8136 13.4333 18.3336 13.14C18.8536 12.8467 19.2136 12.46 19.4136 11.98L21.2936 12.52C20.9336 13.3067 20.3336 13.9533 19.4936 14.46C18.6669 14.9533 17.7003 15.2 16.5936 15.2ZM13.4536 9.04H19.7736C19.7203 8.44 19.5469 7.91333 19.2536 7.46C18.9603 6.99333 18.5803 6.63333 18.1136 6.38C17.6603 6.11333 17.1536 5.98 16.5936 5.98C16.0469 5.98 15.5403 6.11333 15.0736 6.38C14.6203 6.63333 14.2469 6.99333 13.9536 7.46C13.6603 7.91333 13.4936 8.44 13.4536 9.04ZM36.0952 4.54H38.1952L33.7952 15H31.9152L30.0352 10.28L28.1552 15H26.2752L21.8552 4.54H23.9552L27.3152 12.86L28.7952 9L26.9952 4.56H28.8552L30.0352 7.82L31.1952 4.56H33.0552L31.2752 9L32.7552 12.86L36.0952 4.54ZM44.8967 15.2C44.0967 15.2 43.3701 15.0133 42.7167 14.64C42.0634 14.2533 41.5567 13.74 41.1967 13.1V15H39.2567V0.4H41.4567V6.52C41.8701 5.85333 42.3834 5.32667 42.9967 4.94C43.6234 4.55333 44.3567 4.36 45.1967 4.36C46.1301 4.36 46.9434 4.61333 47.6367 5.12C48.3301 5.62667 48.8701 6.3 49.2567 7.14C49.6434 7.96667 49.8367 8.86 49.8367 9.82C49.8367 10.8067 49.6167 11.7067 49.1767 12.52C48.7501 13.3333 48.1634 13.9867 47.4167 14.48C46.6701 14.96 45.8301 15.2 44.8967 15.2ZM44.3167 13.32C44.9567 13.32 45.5234 13.16 46.0167 12.84C46.5101 12.5067 46.8901 12.0733 47.1567 11.54C47.4367 11.0067 47.5767 10.4333 47.5767 9.82C47.5767 9.19333 47.4434 8.60667 47.1767 8.06C46.9234 7.51333 46.5634 7.07333 46.0967 6.74C45.6301 6.40667 45.0901 6.24 44.4767 6.24C43.8101 6.24 43.2101 6.46 42.6767 6.9C42.1434 7.34 41.7367 7.87333 41.4567 8.5V11.26C41.5634 11.66 41.7701 12.0133 42.0767 12.32C42.3834 12.6267 42.7367 12.8733 43.1367 13.06C43.5501 13.2333 43.9434 13.32 44.3167 13.32ZM51.4353 0.4H53.6353V11.98C53.6353 12.5133 53.7153 12.8533 53.8753 13C54.0353 13.1467 54.2353 13.22 54.4753 13.22C54.742 13.22 54.9953 13.1933 55.2353 13.14C55.4753 13.0867 55.6753 13.02 55.8353 12.94L56.1553 14.68C55.8353 14.8133 55.4553 14.9267 55.0153 15.02C54.5753 15.1133 54.182 15.16 53.8353 15.16C53.0886 15.16 52.502 14.9533 52.0753 14.54C51.6486 14.1133 51.4353 13.5267 51.4353 12.78V0.4ZM61.7309 15.2C60.6376 15.2 59.6843 14.9533 58.8709 14.46C58.0709 13.9533 57.4509 13.2933 57.0109 12.48C56.5709 11.6533 56.3509 10.7533 56.3509 9.78C56.3509 8.80667 56.5709 7.91333 57.0109 7.1C57.4643 6.27333 58.0909 5.61333 58.8909 5.12C59.7043 4.61333 60.6509 4.36 61.7309 4.36C62.8109 4.36 63.7509 4.61333 64.5509 5.12C65.3643 5.61333 65.9909 6.27333 66.4309 7.1C66.8843 7.91333 67.1109 8.80667 67.1109 9.78C67.1109 10.7533 66.8909 11.6533 66.4509 12.48C66.0109 13.2933 65.3843 13.9533 64.5709 14.46C63.7709 14.9533 62.8243 15.2 61.7309 15.2ZM58.6109 9.8C58.6109 10.4667 58.7509 11.0667 59.0309 11.6C59.3109 12.1333 59.6843 12.5533 60.1509 12.86C60.6176 13.1667 61.1443 13.32 61.7309 13.32C62.3043 13.32 62.8243 13.1667 63.2909 12.86C63.7709 12.54 64.1509 12.1133 64.4309 11.58C64.7109 11.0467 64.8509 10.4467 64.8509 9.78C64.8509 9.11333 64.7109 8.51333 64.4309 7.98C64.1509 7.44667 63.7709 7.02667 63.2909 6.72C62.8243 6.4 62.3043 6.24 61.7309 6.24C61.1576 6.24 60.6309 6.4 60.1509 6.72C59.6843 7.02667 59.3109 7.45333 59.0309 8C58.7509 8.53333 58.6109 9.13333 58.6109 9.8ZM68.2497 15V12.44H70.0697V15H68.2497Z" fill="#323232"/>
<path d="M82.3889 15.2C81.5889 15.2 80.8622 15.0133 80.2089 14.64C79.5556 14.2533 79.0489 13.74 78.6889 13.1V15H76.7489V0.4H78.9489V6.52C79.3622 5.85333 79.8756 5.32667 80.4889 4.94C81.1156 4.55333 81.8489 4.36 82.6889 4.36C83.6222 4.36 84.4356 4.61333 85.1289 5.12C85.8222 5.62667 86.3622 6.3 86.7489 7.14C87.1356 7.96667 87.3289 8.86 87.3289 9.82C87.3289 10.8067 87.1089 11.7067 86.6689 12.52C86.2422 13.3333 85.6556 13.9867 84.9089 14.48C84.1622 14.96 83.3222 15.2 82.3889 15.2ZM81.8089 13.32C82.4489 13.32 83.0156 13.16 83.5089 12.84C84.0022 12.5067 84.3822 12.0733 84.6489 11.54C84.9289 11.0067 85.0689 10.4333 85.0689 9.82C85.0689 9.19333 84.9356 8.60667 84.6689 8.06C84.4156 7.51333 84.0556 7.07333 83.5889 6.74C83.1222 6.40667 82.5822 6.24 81.9689 6.24C81.3022 6.24 80.7022 6.46 80.1689 6.9C79.6356 7.34 79.2289 7.87333 78.9489 8.5V11.26C79.0556 11.66 79.2622 12.0133 79.5689 12.32C79.8756 12.6267 80.2289 12.8733 80.6289 13.06C81.0422 13.2333 81.4356 13.32 81.8089 13.32ZM93.6475 15.2C92.5675 15.2 91.6208 14.9533 90.8075 14.46C89.9942 13.9667 89.3608 13.3133 88.9075 12.5C88.4542 11.6733 88.2275 10.7733 88.2275 9.8C88.2275 8.81333 88.4542 7.90667 88.9075 7.08C89.3608 6.25333 89.9942 5.59333 90.8075 5.1C91.6208 4.60667 92.5742 4.36 93.6675 4.36C94.7608 4.36 95.7075 4.61333 96.5075 5.12C97.3075 5.61333 97.9208 6.26667 98.3475 7.08C98.7875 7.89333 99.0075 8.76667 99.0075 9.7C99.0075 10.0333 98.9875 10.3 98.9475 10.5H90.5675C90.6075 11.1133 90.7742 11.6533 91.0675 12.12C91.3742 12.5733 91.7542 12.9333 92.2075 13.2C92.6742 13.4533 93.1808 13.58 93.7275 13.58C94.3142 13.58 94.8675 13.4333 95.3875 13.14C95.9075 12.8467 96.2675 12.46 96.4675 11.98L98.3475 12.52C97.9875 13.3067 97.3875 13.9533 96.5475 14.46C95.7208 14.9533 94.7542 15.2 93.6475 15.2ZM90.5075 9.04H96.8275C96.7742 8.44 96.6008 7.91333 96.3075 7.46C96.0142 6.99333 95.6342 6.63333 95.1675 6.38C94.7142 6.11333 94.2075 5.98 93.6475 5.98C93.1008 5.98 92.5942 6.11333 92.1275 6.38C91.6742 6.63333 91.3008 6.99333 91.0075 7.46C90.7142 7.91333 90.5475 8.44 90.5075 9.04ZM106.124 14.46C105.844 14.5933 105.458 14.7467 104.964 14.92C104.471 15.08 103.944 15.16 103.384 15.16C102.691 15.16 102.091 14.9733 101.584 14.6C101.091 14.2267 100.844 13.62 100.844 12.78V6.24H99.4644V4.54H100.844V1.1H103.044V4.54H105.324V6.24H103.044V12.08C103.071 12.4533 103.184 12.7267 103.384 12.9C103.598 13.06 103.858 13.14 104.164 13.14C104.471 13.14 104.764 13.0867 105.044 12.98C105.324 12.8733 105.531 12.7867 105.664 12.72L106.124 14.46ZM106.488 11.94C106.488 11.2733 106.675 10.6933 107.048 10.2C107.421 9.69333 107.941 9.30667 108.608 9.04C109.288 8.76 110.068 8.62 110.948 8.62C111.415 8.62 111.888 8.66 112.368 8.74C112.861 8.80667 113.295 8.90667 113.668 9.04V8.38C113.668 7.64667 113.448 7.07333 113.008 6.66C112.568 6.24667 111.935 6.04 111.108 6.04C110.535 6.04 109.981 6.14 109.448 6.34C108.915 6.54 108.361 6.83333 107.788 7.22L107.048 5.74C107.741 5.28667 108.435 4.94667 109.128 4.72C109.835 4.48 110.575 4.36 111.348 4.36C112.748 4.36 113.848 4.73333 114.648 5.48C115.461 6.21333 115.868 7.26 115.868 8.62V12.52C115.868 12.7733 115.908 12.9533 115.988 13.06C116.081 13.1667 116.235 13.2267 116.448 13.24V15C116.248 15.04 116.068 15.0667 115.908 15.08C115.748 15.0933 115.615 15.1 115.508 15.1C115.028 15.1 114.668 14.9867 114.428 14.76C114.201 14.52 114.068 14.2533 114.028 13.96L113.968 13.36C113.515 13.9467 112.935 14.4 112.228 14.72C111.521 15.04 110.808 15.2 110.088 15.2C109.395 15.2 108.775 15.06 108.228 14.78C107.681 14.4867 107.255 14.0933 106.948 13.6C106.641 13.1067 106.488 12.5533 106.488 11.94ZM113.148 12.58C113.495 12.2333 113.668 11.9067 113.668 11.6V10.4C112.881 10.1067 112.081 9.96 111.268 9.96C110.468 9.96 109.815 10.1267 109.308 10.46C108.815 10.78 108.568 11.2133 108.568 11.76C108.568 12.2133 108.748 12.6333 109.108 13.02C109.481 13.3933 110.015 13.58 110.708 13.58C111.175 13.58 111.628 13.4867 112.068 13.3C112.508 13.1133 112.868 12.8733 113.148 12.58ZM118.037 15V12.44H119.857V15H118.037Z" fill="#C4C4C4"/>
</svg>
