<svg width="94" height="28" viewBox="0 0 94 28" fill="none" xmlns="http://www.w3.org/2000/svg">
<path d="M2.06261 28C1.30532 28 0.767251 27.6049 0.448394 26.8148C0.149464 26.0247 0 24.7605 0 23.0222C0 20.4543 0.368679 18.0148 1.10604 15.7037C1.2854 15.1309 1.57436 14.716 1.97293 14.4593C2.39143 14.1827 2.96936 14.0444 3.70672 14.0444C4.10529 14.0444 4.38429 14.0938 4.54372 14.1926C4.70315 14.2914 4.78287 14.479 4.78287 14.7556C4.78287 15.0716 4.6334 15.7827 4.33447 16.8889C4.13519 17.679 3.97576 18.3704 3.85619 18.963C3.73661 19.5556 3.63697 20.2864 3.55726 21.1556C4.2149 19.4568 4.95226 18.0741 5.76933 17.0074C6.5864 15.9407 7.38355 15.1802 8.16076 14.7259C8.95791 14.2716 9.6853 14.0444 10.3429 14.0444C11.6383 14.0444 12.286 14.6864 12.286 15.9704C12.286 16.7407 12.0668 18.1333 11.6283 20.1481C11.2497 21.8667 11.0604 23.0025 11.0604 23.5556C11.0604 24.3457 11.3493 24.7407 11.9273 24.7407C12.3258 24.7407 12.7942 24.5037 13.3322 24.0296C13.8902 23.5358 14.6276 22.7457 15.5443 21.6593C15.7835 21.3827 16.0525 21.2444 16.3514 21.2444C16.6105 21.2444 16.8098 21.363 16.9493 21.6C17.1087 21.837 17.1884 22.163 17.1884 22.5778C17.1884 23.3679 16.9991 23.9802 16.6205 24.4148C15.7635 25.4617 14.8368 26.321 13.8404 26.9926C12.8639 27.6642 11.7479 28 10.4924 28C9.47605 28 8.7088 27.7136 8.19066 27.1407C7.67251 26.5481 7.41344 25.6988 7.41344 24.5926C7.41344 24.0395 7.55294 23.0519 7.83194 21.6296C8.09101 20.3852 8.22055 19.5259 8.22055 19.0519C8.22055 18.7358 8.11094 18.5778 7.89173 18.5778C7.63266 18.5778 7.26398 18.9136 6.78569 19.5852C6.32733 20.237 5.84905 21.1062 5.35083 22.1926C4.87254 23.279 4.48394 24.4247 4.18501 25.6296C3.96579 26.558 3.70672 27.1901 3.40779 27.5259C3.12879 27.842 2.6804 28 2.06261 28Z" fill="#323232"/>
<path d="M28.1021 21.2444C28.3612 21.2444 28.5605 21.363 28.7 21.6C28.8594 21.837 28.9391 22.163 28.9391 22.5778C28.9391 23.3679 28.7498 23.9802 28.3712 24.4148C27.6338 25.3037 26.5876 26.1235 25.2324 26.8741C23.8972 27.6247 22.4623 28 20.9278 28C18.8353 28 17.2112 27.437 16.0553 26.3111C14.8994 25.1852 14.3215 23.6444 14.3215 21.6889C14.3215 20.3259 14.6105 19.0617 15.1884 17.8963C15.7663 16.7111 16.5635 15.7728 17.5798 15.0815C18.6161 14.3901 19.7819 14.0444 21.0773 14.0444C22.2332 14.0444 23.1598 14.3901 23.8573 15.0815C24.5548 15.7531 24.9036 16.6716 24.9036 17.837C24.9036 19.2 24.4054 20.3753 23.409 21.363C22.4324 22.3309 20.7684 23.1012 18.4168 23.6741C18.9151 24.5827 19.8617 25.037 21.2567 25.037C22.1534 25.037 23.1698 24.7309 24.3057 24.1185C25.4616 23.4864 26.458 22.6667 27.295 21.6593C27.5342 21.3827 27.8032 21.2444 28.1021 21.2444ZM20.5691 16.9481C19.8318 16.9481 19.204 17.3728 18.6859 18.2222C18.1877 19.0716 17.9385 20.0988 17.9385 21.3037V21.363C19.1143 21.0864 20.041 20.6716 20.7186 20.1185C21.3962 19.5654 21.7349 18.9235 21.7349 18.1926C21.7349 17.8173 21.6253 17.521 21.4061 17.3037C21.2068 17.0667 20.9278 16.9481 20.5691 16.9481Z" fill="#323232"/>
<path d="M48.9513 18.8444C49.0111 18.8247 49.1107 18.8148 49.2502 18.8148C49.5491 18.8148 49.7783 18.9136 49.9377 19.1111C50.0972 19.3086 50.1769 19.5753 50.1769 19.9111C50.1769 20.5235 50.0573 21.0074 49.8182 21.363C49.579 21.6988 49.2203 21.9457 48.742 22.1037C47.8253 22.4 46.8488 22.5481 45.8125 22.5481C44.9357 22.5481 44.1086 22.4296 43.3314 22.1926C42.7535 23.121 42.1158 24.079 41.4183 25.0667C40.6211 26.1926 39.9336 26.963 39.3557 27.3778C38.7976 27.7926 38.1599 28 37.4425 28C36.6454 28 36.0375 27.6938 35.619 27.0815C35.2205 26.4691 34.9714 25.4617 34.8717 24.0593L34.7222 21.8963C34.1045 23.5556 33.5465 24.8198 33.0482 25.6889C32.57 26.558 32.0817 27.1605 31.5835 27.4963C31.1052 27.8321 30.5372 28 29.8796 28C29.0625 28 28.4148 27.6839 27.9366 27.0518C27.4782 26.4198 27.1892 25.4222 27.0697 24.0593C26.8305 21.2938 26.7109 18.8741 26.7109 16.8V15.763C26.7309 15.1111 26.9102 14.6568 27.249 14.4C27.5878 14.1432 28.096 14.0148 28.7736 14.0148C29.2917 14.0148 29.6703 14.1333 29.9095 14.3704C30.1686 14.5877 30.2981 14.963 30.2981 15.4963C30.2981 17.7679 30.4376 20.721 30.7166 24.3556C32.0717 21.5309 33.3173 18.5877 34.4532 15.5259C34.6724 14.9333 34.9315 14.5383 35.2304 14.3407C35.5493 14.1235 35.9279 14.0148 36.3664 14.0148C36.9044 14.0148 37.2731 14.1235 37.4724 14.3407C37.6916 14.558 37.8012 14.9432 37.8012 15.4963C37.8012 17.7679 37.9407 20.721 38.2197 24.3556C39.4154 22.5975 40.3122 21.1951 40.9101 20.1481C40.6112 19.5753 40.4617 18.8938 40.4617 18.1037C40.4617 17.4321 40.6112 16.7802 40.9101 16.1481C41.209 15.5161 41.6175 15.0025 42.1357 14.6074C42.6538 14.2123 43.2417 14.0148 43.8994 14.0148C44.4773 14.0148 44.9456 14.2222 45.3043 14.637C45.6631 15.0321 45.8424 15.6148 45.8424 16.3852C45.8424 17.2741 45.6033 18.2914 45.125 19.437C45.8823 19.3975 46.8887 19.2494 48.1442 18.9926L48.9513 18.8444Z" fill="#323232"/>
<path d="M63.4851 18.7556C63.7441 18.7556 63.9434 18.884 64.0829 19.1407C64.2224 19.3975 64.2922 19.7235 64.2922 20.1185C64.2922 20.6123 64.2224 20.9975 64.0829 21.2741C63.9434 21.5309 63.7242 21.7086 63.4253 21.8074C62.2296 22.2222 60.9143 22.4593 59.4794 22.5185C59.0808 24.158 58.3236 25.4815 57.2076 26.4889C56.1115 27.4963 54.8958 28 53.5606 28C51.5478 28 50.0831 27.2395 49.1664 25.7185C48.2496 24.1975 47.7913 21.9951 47.7913 19.1111C47.7913 16.563 48.1101 13.7975 48.7479 10.8148C49.3856 7.81235 50.3123 5.2642 51.5279 3.17037C52.7635 1.05679 54.2282 0 55.9222 0C56.8389 0 57.5762 0.395062 58.1342 1.18519C58.6922 1.95556 58.9712 2.96296 58.9712 4.20741C58.9712 5.82716 58.6623 7.43704 58.0446 9.03704C57.4268 10.637 56.4004 12.316 54.9656 14.0741C56.3008 14.1728 57.3869 14.7259 58.2239 15.7333C59.0609 16.721 59.5591 17.9457 59.7186 19.4074C60.6552 19.3481 61.7712 19.1506 63.0666 18.8148C63.1861 18.7753 63.3256 18.7556 63.4851 18.7556ZM55.2346 2.93333C54.836 2.93333 54.3976 3.52593 53.9193 4.71111C53.461 5.87654 53.0325 7.46667 52.6339 9.48148C52.2354 11.4963 51.9364 13.6988 51.7372 16.0889C53.0524 13.6988 54.0987 11.5951 54.8759 9.77778C55.6731 7.94074 56.0716 6.31111 56.0716 4.88889C56.0716 4.25679 55.9919 3.77284 55.8325 3.43704C55.693 3.10123 55.4937 2.93333 55.2346 2.93333ZM53.6802 24.8593C54.298 24.8593 54.846 24.6025 55.3243 24.0889C55.8026 23.5753 56.1214 22.8346 56.2809 21.8667C55.6631 21.4519 55.1848 20.9086 54.846 20.237C54.5272 19.5654 54.3677 18.8543 54.3677 18.1037C54.3677 17.8272 54.4076 17.4519 54.4873 16.9778H54.3976C53.5805 16.9778 52.893 17.3827 52.335 18.1926C51.7969 18.9827 51.5279 20.0494 51.5279 21.3926C51.5279 22.5185 51.7371 23.3778 52.1557 23.9704C52.5941 24.563 53.1023 24.8593 53.6802 24.8593Z" fill="#323232"/>
<path d="M73.0405 21.2444C73.2996 21.2444 73.4989 21.363 73.6384 21.6C73.7978 21.837 73.8775 22.163 73.8775 22.5778C73.8775 23.3679 73.6882 23.9802 73.3096 24.4148C72.4526 25.4617 71.516 26.321 70.4996 26.9926C69.5032 27.6642 68.3673 28 67.0918 28C65.3381 28 64.0328 27.2099 63.1759 25.6296C62.3389 24.0494 61.9204 22.0049 61.9204 19.4963C61.9204 17.0864 62.2293 14.3407 62.847 11.2593C63.4848 8.17778 64.4114 5.53086 65.6271 3.31852C66.8627 1.10617 68.3274 0 70.0213 0C70.9779 0 71.7252 0.444444 72.2633 1.33333C72.8213 2.20247 73.1003 3.45679 73.1003 5.0963C73.1003 7.44691 72.4427 10.1728 71.1274 13.2741C69.8121 16.3753 68.0285 19.4469 65.7766 22.4889C65.916 23.2988 66.1452 23.8815 66.4641 24.237C66.7829 24.5728 67.2014 24.7407 67.7196 24.7407C68.5367 24.7407 69.2541 24.5136 69.8719 24.0593C70.4897 23.5852 71.2768 22.7852 72.2334 21.6593C72.4726 21.3827 72.7416 21.2444 73.0405 21.2444ZM69.3637 2.93333C68.9053 2.93333 68.3872 3.75309 67.8093 5.39259C67.2313 7.0321 66.7232 9.06667 66.2847 11.4963C65.8463 13.9259 65.6071 16.2568 65.5673 18.4889C66.9822 16.1778 68.1082 13.8667 68.9452 11.5556C69.7822 9.22469 70.2007 7.10124 70.2007 5.18519C70.2007 3.68395 69.9217 2.93333 69.3637 2.93333Z" fill="#323232"/>
<path d="M76.5132 28C75.3374 28 74.3311 27.7136 73.4941 27.1407C72.677 26.5481 72.0592 25.7778 71.6407 24.8296C71.2222 23.8815 71.0129 22.8642 71.0129 21.7778C71.0129 20.2765 71.2919 18.9432 71.8499 17.7778C72.4279 16.5926 73.2051 15.6741 74.1816 15.0222C75.1581 14.3506 76.2542 14.0148 77.4698 14.0148C78.6456 14.0148 79.652 14.3111 80.489 14.9037C81.326 15.4765 81.9537 16.237 82.3722 17.1852C82.7907 18.1333 83 19.1506 83 20.237C83 21.7383 82.711 23.0815 82.1331 24.2667C81.5552 25.4321 80.768 26.3506 79.7716 27.0222C78.7951 27.6741 77.709 28 76.5132 28ZM76.8421 24.8C77.5196 24.8 78.0876 24.4346 78.546 23.7037C79.0242 22.9728 79.2634 21.9062 79.2634 20.5037C79.2634 19.4173 79.0641 18.5975 78.6655 18.0444C78.267 17.4914 77.7887 17.2148 77.2307 17.2148C76.5132 17.2148 75.9154 17.5802 75.4371 18.3111C74.9787 19.0222 74.7495 20.0889 74.7495 21.5111C74.7495 22.637 74.9488 23.4667 75.3474 24C75.746 24.5333 76.2442 24.8 76.8421 24.8Z" fill="#323232"/>
<circle cx="90" cy="24" r="4" fill="#16C79A"/>
</svg>
