<svg width="159" height="32" viewBox="0 0 159 32" fill="none" xmlns="http://www.w3.org/2000/svg">
<path d="M46.7 23H44.5V17.14C44.5 16.1533 44.34 15.44 44.02 15C43.7133 14.5467 43.2533 14.32 42.64 14.32C42.2133 14.32 41.7867 14.4267 41.36 14.64C40.9467 14.8533 40.5733 15.1467 40.24 15.52C39.9067 15.8933 39.6667 16.3133 39.52 16.78V23H37.32V12.54H39.32V14.64C39.72 13.9467 40.3 13.3933 41.06 12.98C41.82 12.5667 42.66 12.36 43.58 12.36C44.4067 12.36 45.0467 12.56 45.5 12.96C45.9533 13.3467 46.2667 13.86 46.44 14.5C46.6133 15.14 46.7 15.8467 46.7 16.62V23ZM53.5936 23.2C52.5136 23.2 51.5669 22.9533 50.7536 22.46C49.9403 21.9667 49.3069 21.3133 48.8536 20.5C48.4003 19.6733 48.1736 18.7733 48.1736 17.8C48.1736 16.8133 48.4003 15.9067 48.8536 15.08C49.3069 14.2533 49.9403 13.5933 50.7536 13.1C51.5669 12.6067 52.5203 12.36 53.6136 12.36C54.7069 12.36 55.6536 12.6133 56.4536 13.12C57.2536 13.6133 57.8669 14.2667 58.2936 15.08C58.7336 15.8933 58.9536 16.7667 58.9536 17.7C58.9536 18.0333 58.9336 18.3 58.8936 18.5H50.5136C50.5536 19.1133 50.7203 19.6533 51.0136 20.12C51.3203 20.5733 51.7003 20.9333 52.1536 21.2C52.6203 21.4533 53.1269 21.58 53.6736 21.58C54.2603 21.58 54.8136 21.4333 55.3336 21.14C55.8536 20.8467 56.2136 20.46 56.4136 19.98L58.2936 20.52C57.9336 21.3067 57.3336 21.9533 56.4936 22.46C55.6669 22.9533 54.7003 23.2 53.5936 23.2ZM50.4536 17.04H56.7736C56.7203 16.44 56.5469 15.9133 56.2536 15.46C55.9603 14.9933 55.5803 14.6333 55.1136 14.38C54.6603 14.1133 54.1536 13.98 53.5936 13.98C53.0469 13.98 52.5403 14.1133 52.0736 14.38C51.6203 14.6333 51.2469 14.9933 50.9536 15.46C50.6603 15.9133 50.4936 16.44 50.4536 17.04ZM73.0952 12.54H75.1952L70.7952 23H68.9152L67.0352 18.28L65.1552 23H63.2752L58.8552 12.54H60.9552L64.3152 20.86L65.7952 17L63.9952 12.56H65.8552L67.0352 15.82L68.1952 12.56H70.0552L68.2752 17L69.7552 20.86L73.0952 12.54ZM81.8967 23.2C81.0967 23.2 80.3701 23.0133 79.7167 22.64C79.0634 22.2533 78.5567 21.74 78.1967 21.1V23H76.2567V8.4H78.4567V14.52C78.8701 13.8533 79.3834 13.3267 79.9967 12.94C80.6234 12.5533 81.3567 12.36 82.1967 12.36C83.1301 12.36 83.9434 12.6133 84.6367 13.12C85.3301 13.6267 85.8701 14.3 86.2567 15.14C86.6434 15.9667 86.8367 16.86 86.8367 17.82C86.8367 18.8067 86.6167 19.7067 86.1767 20.52C85.7501 21.3333 85.1634 21.9867 84.4167 22.48C83.6701 22.96 82.8301 23.2 81.8967 23.2ZM81.3167 21.32C81.9567 21.32 82.5234 21.16 83.0167 20.84C83.5101 20.5067 83.8901 20.0733 84.1567 19.54C84.4367 19.0067 84.5767 18.4333 84.5767 17.82C84.5767 17.1933 84.4434 16.6067 84.1767 16.06C83.9234 15.5133 83.5634 15.0733 83.0967 14.74C82.6301 14.4067 82.0901 14.24 81.4767 14.24C80.8101 14.24 80.2101 14.46 79.6767 14.9C79.1434 15.34 78.7367 15.8733 78.4567 16.5V19.26C78.5634 19.66 78.7701 20.0133 79.0767 20.32C79.3834 20.6267 79.7367 20.8733 80.1367 21.06C80.5501 21.2333 80.9434 21.32 81.3167 21.32ZM88.4353 8.4H90.6353V19.98C90.6353 20.5133 90.7153 20.8533 90.8753 21C91.0353 21.1467 91.2353 21.22 91.4753 21.22C91.742 21.22 91.9953 21.1933 92.2353 21.14C92.4753 21.0867 92.6753 21.02 92.8353 20.94L93.1553 22.68C92.8353 22.8133 92.4553 22.9267 92.0153 23.02C91.5753 23.1133 91.182 23.16 90.8353 23.16C90.0886 23.16 89.502 22.9533 89.0753 22.54C88.6486 22.1133 88.4353 21.5267 88.4353 20.78V8.4ZM98.7309 23.2C97.6376 23.2 96.6843 22.9533 95.8709 22.46C95.0709 21.9533 94.4509 21.2933 94.0109 20.48C93.5709 19.6533 93.3509 18.7533 93.3509 17.78C93.3509 16.8067 93.5709 15.9133 94.0109 15.1C94.4643 14.2733 95.0909 13.6133 95.8909 13.12C96.7043 12.6133 97.6509 12.36 98.7309 12.36C99.8109 12.36 100.751 12.6133 101.551 13.12C102.364 13.6133 102.991 14.2733 103.431 15.1C103.884 15.9133 104.111 16.8067 104.111 17.78C104.111 18.7533 103.891 19.6533 103.451 20.48C103.011 21.2933 102.384 21.9533 101.571 22.46C100.771 22.9533 99.8243 23.2 98.7309 23.2ZM95.6109 17.8C95.6109 18.4667 95.7509 19.0667 96.0309 19.6C96.3109 20.1333 96.6843 20.5533 97.1509 20.86C97.6176 21.1667 98.1443 21.32 98.7309 21.32C99.3043 21.32 99.8243 21.1667 100.291 20.86C100.771 20.54 101.151 20.1133 101.431 19.58C101.711 19.0467 101.851 18.4467 101.851 17.78C101.851 17.1133 101.711 16.5133 101.431 15.98C101.151 15.4467 100.771 15.0267 100.291 14.72C99.8243 14.4 99.3043 14.24 98.7309 14.24C98.1576 14.24 97.6309 14.4 97.1509 14.72C96.6843 15.0267 96.3109 15.4533 96.0309 16C95.7509 16.5333 95.6109 17.1333 95.6109 17.8ZM105.25 23V20.44H107.07V23H105.25Z" fill="#292F33"/>
<path d="M119.389 23.2C118.589 23.2 117.862 23.0133 117.209 22.64C116.556 22.2533 116.049 21.74 115.689 21.1V23H113.749V8.4H115.949V14.52C116.362 13.8533 116.876 13.3267 117.489 12.94C118.116 12.5533 118.849 12.36 119.689 12.36C120.622 12.36 121.436 12.6133 122.129 13.12C122.822 13.6267 123.362 14.3 123.749 15.14C124.136 15.9667 124.329 16.86 124.329 17.82C124.329 18.8067 124.109 19.7067 123.669 20.52C123.242 21.3333 122.656 21.9867 121.909 22.48C121.162 22.96 120.322 23.2 119.389 23.2ZM118.809 21.32C119.449 21.32 120.016 21.16 120.509 20.84C121.002 20.5067 121.382 20.0733 121.649 19.54C121.929 19.0067 122.069 18.4333 122.069 17.82C122.069 17.1933 121.936 16.6067 121.669 16.06C121.416 15.5133 121.056 15.0733 120.589 14.74C120.122 14.4067 119.582 14.24 118.969 14.24C118.302 14.24 117.702 14.46 117.169 14.9C116.636 15.34 116.229 15.8733 115.949 16.5V19.26C116.056 19.66 116.262 20.0133 116.569 20.32C116.876 20.6267 117.229 20.8733 117.629 21.06C118.042 21.2333 118.436 21.32 118.809 21.32ZM130.648 23.2C129.568 23.2 128.621 22.9533 127.808 22.46C126.994 21.9667 126.361 21.3133 125.908 20.5C125.454 19.6733 125.228 18.7733 125.228 17.8C125.228 16.8133 125.454 15.9067 125.908 15.08C126.361 14.2533 126.994 13.5933 127.808 13.1C128.621 12.6067 129.574 12.36 130.668 12.36C131.761 12.36 132.708 12.6133 133.508 13.12C134.308 13.6133 134.921 14.2667 135.348 15.08C135.788 15.8933 136.008 16.7667 136.008 17.7C136.008 18.0333 135.988 18.3 135.948 18.5H127.568C127.608 19.1133 127.774 19.6533 128.068 20.12C128.374 20.5733 128.754 20.9333 129.208 21.2C129.674 21.4533 130.181 21.58 130.728 21.58C131.314 21.58 131.868 21.4333 132.388 21.14C132.908 20.8467 133.268 20.46 133.468 19.98L135.348 20.52C134.988 21.3067 134.388 21.9533 133.548 22.46C132.721 22.9533 131.754 23.2 130.648 23.2ZM127.508 17.04H133.828C133.774 16.44 133.601 15.9133 133.308 15.46C133.014 14.9933 132.634 14.6333 132.168 14.38C131.714 14.1133 131.208 13.98 130.648 13.98C130.101 13.98 129.594 14.1133 129.128 14.38C128.674 14.6333 128.301 14.9933 128.008 15.46C127.714 15.9133 127.548 16.44 127.508 17.04ZM143.124 22.46C142.844 22.5933 142.458 22.7467 141.964 22.92C141.471 23.08 140.944 23.16 140.384 23.16C139.691 23.16 139.091 22.9733 138.584 22.6C138.091 22.2267 137.844 21.62 137.844 20.78V14.24H136.464V12.54H137.844V9.1H140.044V12.54H142.324V14.24H140.044V20.08C140.071 20.4533 140.184 20.7267 140.384 20.9C140.598 21.06 140.858 21.14 141.164 21.14C141.471 21.14 141.764 21.0867 142.044 20.98C142.324 20.8733 142.531 20.7867 142.664 20.72L143.124 22.46ZM143.488 19.94C143.488 19.2733 143.675 18.6933 144.048 18.2C144.421 17.6933 144.941 17.3067 145.608 17.04C146.288 16.76 147.068 16.62 147.948 16.62C148.415 16.62 148.888 16.66 149.368 16.74C149.861 16.8067 150.295 16.9067 150.668 17.04V16.38C150.668 15.6467 150.448 15.0733 150.008 14.66C149.568 14.2467 148.935 14.04 148.108 14.04C147.535 14.04 146.981 14.14 146.448 14.34C145.915 14.54 145.361 14.8333 144.788 15.22L144.048 13.74C144.741 13.2867 145.435 12.9467 146.128 12.72C146.835 12.48 147.575 12.36 148.348 12.36C149.748 12.36 150.848 12.7333 151.648 13.48C152.461 14.2133 152.868 15.26 152.868 16.62V20.52C152.868 20.7733 152.908 20.9533 152.988 21.06C153.081 21.1667 153.235 21.2267 153.448 21.24V23C153.248 23.04 153.068 23.0667 152.908 23.08C152.748 23.0933 152.615 23.1 152.508 23.1C152.028 23.1 151.668 22.9867 151.428 22.76C151.201 22.52 151.068 22.2533 151.028 21.96L150.968 21.36C150.515 21.9467 149.935 22.4 149.228 22.72C148.521 23.04 147.808 23.2 147.088 23.2C146.395 23.2 145.775 23.06 145.228 22.78C144.681 22.4867 144.255 22.0933 143.948 21.6C143.641 21.1067 143.488 20.5533 143.488 19.94ZM150.148 20.58C150.495 20.2333 150.668 19.9067 150.668 19.6V18.4C149.881 18.1067 149.081 17.96 148.268 17.96C147.468 17.96 146.815 18.1267 146.308 18.46C145.815 18.78 145.568 19.2133 145.568 19.76C145.568 20.2133 145.748 20.6333 146.108 21.02C146.481 21.3933 147.015 21.58 147.708 21.58C148.175 21.58 148.628 21.4867 149.068 21.3C149.508 21.1133 149.868 20.8733 150.148 20.58ZM155.037 23V20.44H156.857V23H155.037Z" fill="#787878"/>
<path d="M12.24 12.96V23H10V8.79999H11.84L19.88 19.06V8.81999H22.14V23H20.18L12.24 12.96Z" fill="#292F33"/>
<circle cx="16" cy="16" r="15" stroke="#292F33" stroke-width="2"/>
</svg>
