<svg width="20" height="20" viewBox="0 0 20 20" fill="none" xmlns="http://www.w3.org/2000/svg">
<g clip-path="url(#clip0_315_975)">
<path fill-rule="evenodd" clip-rule="evenodd" d="M6.78052 12.6225C6.18885 11.9084 5.82552 11 5.82552 10C5.82552 7.70002 7.69302 5.83335 9.99219 5.83335C10.993 5.83335 11.9014 6.19585 12.6155 6.78752L14.1964 5.20669C12.9955 4.59169 11.5947 4.16669 10.0005 4.16669C4.90469 4.16669 1.64635 8.62919 0.965521 9.65335C1.40635 10.3484 2.94802 12.5925 5.22635 14.1767L6.78052 12.6225ZM12.0255 7.37752C11.4647 6.93585 10.763 6.66669 9.99219 6.66669C8.15302 6.66669 6.65885 8.16002 6.65885 10C6.65885 10.7692 6.92885 11.4709 7.37052 12.0325L12.0255 7.37752ZM18.3255 2.25585L2.24885 18.3334L1.65885 17.7442L4.61552 14.7875C2.70052 13.4442 1.08719 11.55 -0.0078125 9.64669C2.00719 6.22752 5.77802 3.33335 10.0005 3.33335C11.7214 3.33335 13.3514 3.80502 14.8189 4.58419L17.7364 1.66669L18.3255 2.25585ZM16.2714 5.48835L15.6597 6.10002C17.523 7.44919 18.683 9.10335 19.0439 9.66169C18.428 10.7475 15.2555 15.8334 10.0005 15.8334C8.81302 15.8334 7.70969 15.5267 6.70802 15.0517L6.08469 15.675C7.31385 16.2934 8.63219 16.6667 10.0005 16.6667C14.3955 16.6667 18.1322 13.3284 19.9997 9.63669C19.0939 8.06085 17.808 6.60585 16.2714 5.48835ZM13.3255 10C13.3255 9.53835 13.2314 9.09835 13.0614 8.69835L13.673 8.08669C13.9739 8.66169 14.1589 9.30669 14.1589 10C14.1589 12.2992 12.2922 14.1667 9.99219 14.1667C9.29885 14.1667 8.65552 13.9809 8.07969 13.6809L8.69135 13.0684C9.09135 13.2384 9.53052 13.3334 9.99219 13.3334C11.8322 13.3334 13.3255 11.84 13.3255 10Z" fill="#787878"/>
</g>
<defs>
<clipPath id="clip0_315_975">
<rect width="20" height="20" fill="white"/>
</clipPath>
</defs>
</svg>
