<svg width="20" height="20" viewBox="0 0 20 20" fill="none" xmlns="http://www.w3.org/2000/svg">
<g clip-path="url(#clip0_315_944)">
<path fill-rule="evenodd" clip-rule="evenodd" d="M10.0083 16.6667C5.7875 16.6667 2.02 13.1575 0 9.64671C2.015 6.22754 5.78583 3.33337 10.0083 3.33337C14.2875 3.33337 18.0375 6.21087 20.0075 9.63671C18.14 13.3284 14.4025 16.6667 10.0083 16.6667ZM0.973333 9.65337C1.67583 10.7625 5.155 15.8334 10.0083 15.8334C15.2625 15.8334 18.435 10.7475 19.0508 9.66254C18.4075 8.66421 15.2125 4.16671 10.0083 4.16671C4.91167 4.16671 1.65417 8.62921 0.973333 9.65337ZM10 5.83337C12.3 5.83337 14.1667 7.70004 14.1667 10C14.1667 12.3 12.3 14.1667 10 14.1667C7.7 14.1667 5.83333 12.3 5.83333 10C5.83333 7.70004 7.7 5.83337 10 5.83337ZM10 6.66671C11.84 6.66671 13.3333 8.16004 13.3333 10C13.3333 11.84 11.84 13.3334 10 13.3334C8.16 13.3334 6.66667 11.84 6.66667 10C6.66667 8.16004 8.16 6.66671 10 6.66671Z" fill="#787878"/>
</g>
<defs>
<clipPath id="clip0_315_944">
<rect width="20" height="20" fill="white"/>
</clipPath>
</defs>
</svg>
